<?xml version="1.0" encoding="UTF-8"?>
<svg xmlns="http://www.w3.org/2000/svg" xmlns:xlink="http://www.w3.org/1999/xlink" version="1.1" viewBox="0 0 1697 955">
  <defs>
    <style>
      .cls-1 {
        mask: url(#mask);
      }

      .cls-2 {
        fill: #231f20;
      }

      .cls-3, .cls-4 {
        fill: #fdb338;
      }

      .cls-5 {
        mask: url(#mask-2);
      }

      .cls-6 {
        mask: url(#mask-1);
      }

      .cls-7 {
        stroke: #7abbf3;
      }

      .cls-7, .cls-8 {
        fill: #7abbf3;
      }

      .cls-7, .cls-4, .cls-9 {
        stroke-miterlimit: 10;
      }

      .cls-10 {
        fill: #fff;
      }

      .cls-11, .cls-9 {
        fill: #838383;
      }

      .cls-4 {
        stroke: #fdb338;
      }

      .cls-9 {
        stroke: #838383;
      }
    </style>
    <mask id="mask" x="413" y="513" width="106" height="25" maskUnits="userSpaceOnUse">
      <g id="path-23-inside-1_45_391">
        <path class="cls-10" d="M415,513h102v23h-102v-23Z"/>
      </g>
    </mask>
    <mask id="mask-1" x="517" y="513" width="268" height="25" maskUnits="userSpaceOnUse">
      <g id="path-25-inside-2_45_391">
        <path class="cls-10" d="M783,513h-264v23h264v-23Z"/>
      </g>
    </mask>
    <mask id="mask-2" x="783" y="513" width="106" height="25" maskUnits="userSpaceOnUse">
      <g id="path-27-inside-3_45_391">
        <path class="cls-10" d="M785,513h102v23h-102v-23Z"/>
      </g>
    </mask>
  </defs>
  <!-- Generator: Adobe Illustrator 28.6.0, SVG Export Plug-In . SVG Version: 1.2.0 Build 709)  -->
  <g>
    <g id="Layer_1">
      <rect class="cls-8" x="751" y="353" width="102" height="28" rx="4" ry="4"/>
      <rect class="cls-8" x="785" y="449" width="102" height="28" rx="4" ry="4"/>
      <rect class="cls-8" x="633" y="449" width="102" height="28" rx="4" ry="4"/>
      <rect class="cls-8" x="633" y="353" width="68" height="28" rx="4" ry="4"/>
      <rect class="cls-8" x="718" y="353" width="17" height="28" rx="4" ry="4"/>
      <rect class="cls-8" x="785" y="385" width="68" height="28" rx="4" ry="4"/>
      <rect class="cls-8" x="870" y="385" width="17" height="28" rx="4" ry="4"/>
      <rect class="cls-8" x="785" y="417" width="68" height="28" rx="4" ry="4"/>
      <rect class="cls-8" x="870" y="417" width="17" height="28" rx="4" ry="4"/>
      <rect class="cls-8" x="785" y="481" width="68" height="28" rx="4" ry="4"/>
      <rect class="cls-8" x="870" y="481" width="17" height="28" rx="4" ry="4"/>
      <rect class="cls-3" x="415" y="353" width="102" height="28" rx="4" ry="4"/>
      <rect class="cls-3" x="415" y="481" width="102" height="28" rx="4" ry="4"/>
      <rect class="cls-3" x="415" y="385" width="102" height="28" rx="4" ry="4"/>
      <rect class="cls-3" x="415" y="417" width="102" height="28" rx="4" ry="4"/>
      <rect class="cls-3" x="415" y="449" width="85" height="28" rx="4" ry="4"/>
      <path d="M430.5,360.8h-5.3v15.2h-2.1v-15.2h-5.3v-1.9h12.7v1.9ZM447.4,360.8h-5.3v15.2h-2.1v-15.2h-5.3v-1.9h12.7v1.9ZM463.7,373.8c-.3.3-.5.6-.8.9-.3.2-.6.5-.9.7-.5.3-1.1.6-1.8.7-.6.2-1.3.2-2,.2-.7,0-1.4-.1-1.9-.3-.6-.2-1.1-.5-1.6-.9-.5-.4-.9-.8-1.2-1.3-.4-.5-.6-1-.9-1.6-.2-.6-.4-1.2-.6-1.8-.1-.6-.2-1.3-.2-1.9v-2c0-.6,0-1.3.2-1.9.1-.6.3-1.2.5-1.8s.5-1.1.8-1.6c.3-.5.7-.9,1.2-1.3.5-.4,1-.6,1.5-.9.6-.2,1.2-.3,1.9-.3s1.5.1,2.2.4c.7.2,1.3.6,1.8,1,.5.5.9,1,1.2,1.7.3.6.5,1.4.6,2.2h-2.1c0-.5-.2-.9-.4-1.4-.2-.4-.4-.8-.7-1.1-.3-.3-.6-.5-1.1-.7-.4-.2-.9-.3-1.4-.3s-1,0-1.4.3c-.4.2-.7.4-1,.7s-.5.6-.7,1c-.2.4-.4.8-.5,1.2-.1.4-.2.9-.3,1.3,0,.5,0,.9,0,1.3v2c0,.4,0,.9.1,1.3,0,.5.2.9.3,1.3.1.4.3.9.5,1.2.2.4.5.7.8,1,.3.3.7.5,1.1.7.4.2.9.3,1.4.3.3,0,.6,0,.9,0,.3,0,.6,0,1-.2.3,0,.6-.2.9-.4.3-.2.5-.4.7-.6v-3.8s-3.4,0-3.4,0v-1.8h5.5v6.3ZM477.6,371.6h-5.7l-1.4,4.4h-2.2l5.5-17.1h1.8l5.4,17.1h-2.2l-1.3-4.4ZM472.5,369.7h4.5l-2.2-7.4-2.3,7.4ZM497.3,370.9c-.1.8-.3,1.5-.6,2.2-.3.7-.7,1.2-1.2,1.7-.5.5-1.1.8-1.7,1.1-.7.3-1.4.4-2.2.4s-1.3,0-1.9-.3c-.6-.2-1.1-.5-1.5-.8-.5-.4-.8-.8-1.2-1.2-.3-.5-.6-1-.8-1.6-.2-.6-.4-1.2-.5-1.8-.1-.6-.2-1.2-.2-1.9v-2.4c0-.6,0-1.3.2-1.9.1-.6.3-1.2.5-1.8.2-.6.5-1.1.8-1.6.3-.5.7-.9,1.2-1.3.4-.4,1-.6,1.5-.8.6-.2,1.2-.3,1.9-.3s1.6.1,2.3.4c.7.3,1.2.6,1.7,1.1.5.5.9,1.1,1.2,1.7.3.7.5,1.4.6,2.2h-2.2c0-.5-.2-1-.4-1.4-.2-.4-.4-.8-.7-1.2-.3-.3-.6-.6-1.1-.8-.4-.2-.9-.3-1.5-.3s-1,0-1.4.3c-.4.2-.7.4-1,.7-.3.3-.5.6-.7,1-.2.4-.3.8-.5,1.2-.1.4-.2.9-.3,1.3,0,.4,0,.9,0,1.3v2.4c0,.4,0,.9,0,1.3,0,.4.1.9.3,1.3.1.4.3.8.5,1.2.2.4.4.7.7,1,.3.3.6.5,1,.7.4.2.8.2,1.4.2s1.1,0,1.5-.3c.4-.2.8-.4,1.1-.8.3-.3.5-.7.7-1.1.2-.4.3-.9.4-1.4h2.2ZM511.3,371.6h-5.7l-1.4,4.4h-2.2l5.5-17.1h1.8l5.4,17.1h-2.2l-1.3-4.4ZM506.1,369.7h4.5l-2.2-7.4-2.3,7.4ZM528.1,371.6h-5.7l-1.4,4.4h-2.2l5.5-17.1h1.8l5.4,17.1h-2.2l-1.3-4.4ZM523,369.7h4.5l-2.2-7.4-2.3,7.4ZM547.8,370.9c-.1.8-.3,1.5-.6,2.2-.3.7-.7,1.2-1.2,1.7-.5.5-1.1.8-1.7,1.1-.7.3-1.4.4-2.2.4s-1.3,0-1.9-.3c-.6-.2-1.1-.5-1.5-.8-.5-.4-.8-.8-1.2-1.2-.3-.5-.6-1-.8-1.6-.2-.6-.4-1.2-.5-1.8-.1-.6-.2-1.2-.2-1.9v-2.4c0-.6,0-1.3.2-1.9.1-.6.3-1.2.5-1.8.2-.6.5-1.1.8-1.6.3-.5.7-.9,1.2-1.3.4-.4,1-.6,1.5-.8.6-.2,1.2-.3,1.9-.3s1.6.1,2.3.4c.7.3,1.2.6,1.7,1.1.5.5.9,1.1,1.2,1.7.3.7.5,1.4.6,2.2h-2.2c0-.5-.2-1-.4-1.4-.2-.4-.4-.8-.7-1.2s-.6-.6-1.1-.8c-.4-.2-.9-.3-1.5-.3s-1,0-1.4.3c-.4.2-.7.4-1,.7-.3.3-.5.6-.7,1-.2.4-.3.8-.5,1.2-.1.4-.2.9-.3,1.3,0,.4,0,.9,0,1.3v2.4c0,.4,0,.9,0,1.3,0,.4.1.9.3,1.3.1.4.3.8.5,1.2.2.4.4.7.7,1,.3.3.6.5,1,.7.4.2.8.2,1.4.2s1.1,0,1.5-.3c.4-.2.8-.4,1.1-.8.3-.3.5-.7.7-1.1.2-.4.3-.9.4-1.4h2.2ZM564.6,370.9c-.1.8-.3,1.5-.6,2.2-.3.7-.7,1.2-1.2,1.7-.5.5-1.1.8-1.7,1.1-.7.3-1.4.4-2.2.4s-1.3,0-1.9-.3c-.6-.2-1.1-.5-1.5-.8-.5-.4-.8-.8-1.2-1.2-.3-.5-.6-1-.8-1.6-.2-.6-.4-1.2-.5-1.8-.1-.6-.2-1.2-.2-1.9v-2.4c0-.6,0-1.3.2-1.9.1-.6.3-1.2.5-1.8.2-.6.5-1.1.8-1.6.3-.5.7-.9,1.2-1.3.4-.4,1-.6,1.5-.8.6-.2,1.2-.3,1.9-.3s1.6.1,2.3.4c.7.3,1.2.6,1.7,1.1.5.5.9,1.1,1.2,1.7.3.7.5,1.4.6,2.2h-2.2c0-.5-.2-1-.4-1.4-.2-.4-.4-.8-.7-1.2s-.6-.6-1.1-.8c-.4-.2-.9-.3-1.5-.3s-1,0-1.4.3c-.4.2-.7.4-1,.7-.3.3-.5.6-.7,1-.2.4-.3.8-.5,1.2-.1.4-.2.9-.3,1.3,0,.4,0,.9,0,1.3v2.4c0,.4,0,.9,0,1.3,0,.4.1.9.3,1.3.1.4.3.8.5,1.2.2.4.4.7.7,1,.3.3.6.5,1,.7.4.2.8.2,1.4.2s1.1,0,1.5-.3c.4-.2.8-.4,1.1-.8.3-.3.5-.7.7-1.1.2-.4.3-.9.4-1.4h2.2ZM581.4,373.8c-.3.3-.5.6-.8.9-.3.2-.6.5-.9.7-.5.3-1.1.6-1.8.7-.6.2-1.3.2-2,.2-.7,0-1.4-.1-1.9-.3-.6-.2-1.1-.5-1.6-.9-.5-.4-.9-.8-1.2-1.3-.4-.5-.6-1-.9-1.6-.2-.6-.4-1.2-.6-1.8-.1-.6-.2-1.3-.2-1.9v-2c0-.6,0-1.3.2-1.9.1-.6.3-1.2.5-1.8.2-.6.5-1.1.8-1.6.3-.5.7-.9,1.2-1.3.5-.4,1-.6,1.5-.9.6-.2,1.2-.3,1.9-.3s1.5.1,2.2.4c.7.2,1.3.6,1.8,1,.5.5.9,1,1.2,1.7.3.6.5,1.4.6,2.2h-2.1c0-.5-.2-.9-.4-1.4-.2-.4-.4-.8-.7-1.1-.3-.3-.6-.5-1.1-.7-.4-.2-.9-.3-1.4-.3s-1,0-1.4.3c-.4.2-.7.4-1,.7-.3.3-.5.6-.7,1-.2.4-.4.8-.5,1.2-.1.4-.2.9-.3,1.3,0,.5,0,.9,0,1.3v2c0,.4,0,.9.1,1.3,0,.5.2.9.3,1.3.1.4.3.9.5,1.2s.5.7.8,1c.3.3.7.5,1.1.7.4.2.9.3,1.4.3.3,0,.6,0,.9,0,.3,0,.6,0,.9-.2s.6-.2.9-.4c.3-.2.5-.4.7-.6v-3.8s-3.4,0-3.4,0v-1.8h5.5v6.3ZM598.2,373.8c-.3.3-.5.6-.8.9-.3.2-.6.5-.9.7-.5.3-1.1.6-1.8.7-.6.2-1.3.2-2,.2-.7,0-1.4-.1-1.9-.3-.6-.2-1.1-.5-1.6-.9-.5-.4-.9-.8-1.2-1.3-.4-.5-.6-1-.9-1.6-.2-.6-.4-1.2-.6-1.8-.1-.6-.2-1.3-.2-1.9v-2c0-.6,0-1.3.2-1.9.1-.6.3-1.2.5-1.8s.5-1.1.8-1.6c.3-.5.7-.9,1.2-1.3.5-.4,1-.6,1.5-.9.6-.2,1.2-.3,1.9-.3s1.5.1,2.2.4c.7.2,1.3.6,1.8,1,.5.5.9,1,1.2,1.7.3.6.5,1.4.6,2.2h-2.1c0-.5-.2-.9-.4-1.4-.2-.4-.4-.8-.7-1.1-.3-.3-.6-.5-1.1-.7-.4-.2-.9-.3-1.4-.3s-1,0-1.4.3c-.4.2-.7.4-1,.7-.3.3-.5.6-.7,1-.2.4-.4.8-.5,1.2-.1.4-.2.9-.3,1.3,0,.5,0,.9,0,1.3v2c0,.4,0,.9.1,1.3,0,.5.2.9.3,1.3.1.4.3.9.5,1.2s.5.7.8,1c.3.3.7.5,1.1.7.4.2.9.3,1.4.3.3,0,.6,0,.9,0,.3,0,.6,0,.9-.2.3,0,.6-.2.9-.4.3-.2.5-.4.7-.6v-3.8s-3.4,0-3.4,0v-1.8h5.5v6.3ZM615,373.8c-.3.3-.5.6-.8.9-.3.2-.6.5-.9.7-.5.3-1.1.6-1.8.7-.6.2-1.3.2-2,.2-.7,0-1.4-.1-1.9-.3-.6-.2-1.1-.5-1.6-.9-.5-.4-.9-.8-1.2-1.3-.4-.5-.6-1-.9-1.6-.2-.6-.4-1.2-.6-1.8-.1-.6-.2-1.3-.2-1.9v-2c0-.6,0-1.3.2-1.9.1-.6.3-1.2.5-1.8s.5-1.1.8-1.6c.3-.5.7-.9,1.2-1.3.5-.4,1-.6,1.5-.9.6-.2,1.2-.3,1.9-.3s1.5.1,2.2.4c.7.2,1.3.6,1.8,1,.5.5.9,1,1.2,1.7.3.6.5,1.4.6,2.2h-2.1c0-.5-.2-.9-.4-1.4-.2-.4-.4-.8-.7-1.1-.3-.3-.6-.5-1.1-.7-.4-.2-.9-.3-1.4-.3s-1,0-1.4.3c-.4.2-.7.4-1,.7-.3.3-.5.6-.7,1-.2.4-.4.8-.5,1.2-.1.4-.2.9-.3,1.3,0,.5,0,.9,0,1.3v2c0,.4,0,.9.1,1.3,0,.5.2.9.3,1.3.1.4.3.9.5,1.2.2.4.5.7.8,1,.3.3.7.5,1.1.7.4.2.9.3,1.4.3.3,0,.6,0,.9,0,.3,0,.6,0,.9-.2.3,0,.6-.2.9-.4.3-.2.5-.4.7-.6v-3.8s-3.4,0-3.4,0v-1.8h5.5v6.3ZM632.3,360.8h-5.3v15.2h-2.1v-15.2h-5.3v-1.9h12.7v1.9ZM649.1,360.8h-5.3v15.2h-2.1v-15.2h-5.3v-1.9h12.7v1.9ZM662.6,371.6h-5.7l-1.4,4.4h-2.2l5.5-17.1h1.8l5.4,17.1h-2.2l-1.3-4.4ZM657.5,369.7h4.5l-2.2-7.4-2.3,7.4ZM682.8,360.8h-5.3v15.2h-2.1v-15.2h-5.3v-1.9h12.7v1.9ZM696.2,371.6h-5.7l-1.4,4.4h-2.2l5.5-17.1h1.8l5.4,17.1h-2.2l-1.3-4.4ZM691.1,369.7h4.5l-2.2-7.4-2.3,7.4ZM716.4,360.8h-5.3v15.2h-2.1v-15.2h-5.3v-1.9h12.7v1.9ZM733.2,360.8h-5.3v15.2h-2.1v-15.2h-5.3v-1.9h12.7v1.9ZM749.6,370.9c-.1.8-.3,1.5-.6,2.2-.3.7-.7,1.2-1.2,1.7-.5.5-1.1.8-1.7,1.1-.7.3-1.4.4-2.2.4s-1.3,0-1.9-.3c-.6-.2-1.1-.5-1.5-.8-.5-.4-.8-.8-1.2-1.2-.3-.5-.6-1-.8-1.6-.2-.6-.4-1.2-.5-1.8-.1-.6-.2-1.2-.2-1.9v-2.4c0-.6,0-1.3.2-1.9.1-.6.3-1.2.5-1.8.2-.6.5-1.1.8-1.6.3-.5.7-.9,1.2-1.3.4-.4,1-.6,1.5-.8.6-.2,1.2-.3,1.9-.3s1.6.1,2.3.4c.7.3,1.2.6,1.7,1.1.5.5.9,1.1,1.2,1.7.3.7.5,1.4.6,2.2h-2.2c0-.5-.2-1-.4-1.4-.2-.4-.4-.8-.7-1.2s-.6-.6-1.1-.8c-.4-.2-.9-.3-1.5-.3s-1,0-1.4.3c-.4.2-.7.4-1,.7-.3.3-.5.6-.7,1-.2.4-.3.8-.5,1.2-.1.4-.2.9-.3,1.3,0,.4,0,.9,0,1.3v2.4c0,.4,0,.9,0,1.3,0,.4.1.9.3,1.3.1.4.3.8.5,1.2.2.4.4.7.7,1,.3.3.6.5,1,.7.4.2.8.2,1.4.2s1.1,0,1.5-.3c.4-.2.8-.4,1.1-.8.3-.3.5-.7.7-1.1.2-.4.3-.9.4-1.4h2.2ZM766.8,360.8h-5.3v15.2h-2.1v-15.2h-5.3v-1.9h12.7v1.9ZM780.3,371.6h-5.7l-1.4,4.4h-2.2l5.5-17.1h1.8l5.4,17.1h-2.2l-1.3-4.4ZM775.2,369.7h4.5l-2.2-7.4-2.3,7.4ZM800.5,360.8h-5.3v15.2h-2.1v-15.2h-5.3v-1.9h12.7v1.9ZM813.9,371.6h-5.7l-1.4,4.4h-2.2l5.5-17.1h1.8l5.4,17.1h-2.2l-1.3-4.4ZM808.8,369.7h4.5l-2.2-7.4-2.3,7.4ZM830.7,371.6h-5.7l-1.4,4.4h-2.2l5.5-17.1h1.8l5.4,17.1h-2.2l-1.3-4.4ZM825.6,369.7h4.5l-2.2-7.4-2.3,7.4ZM850.9,360.8h-5.3v15.2h-2.1v-15.2h-5.3v-1.9h12.7v1.9ZM864.3,371.6h-5.7l-1.4,4.4h-2.2l5.5-17.1h1.8l5.4,17.1h-2.2l-1.3-4.4ZM859.2,369.7h4.5l-2.2-7.4-2.3,7.4ZM881.2,371.6h-5.7l-1.4,4.4h-2.2l5.5-17.1h1.8l5.4,17.1h-2.2l-1.3-4.4ZM876.1,369.7h4.5l-2.2-7.4-2.3,7.4ZM901.3,360.8h-5.3v15.2h-2.1v-15.2h-5.3v-1.9h12.7v1.9ZM914.8,371.6h-5.7l-1.4,4.4h-2.2l5.5-17.1h1.8l5.4,17.1h-2.2l-1.3-4.4ZM909.7,369.7h4.5l-2.2-7.4-2.3,7.4ZM430.5,392.8h-5.3v15.2h-2.1v-15.2h-5.3v-1.9h12.7v1.9ZM447.4,392.8h-5.3v15.2h-2.1v-15.2h-5.3v-1.9h12.7v1.9ZM463.7,405.8c-.3.3-.5.6-.8.9-.3.2-.6.5-.9.7-.5.3-1.1.6-1.8.7-.6.2-1.3.2-2,.2-.7,0-1.4-.1-1.9-.3-.6-.2-1.1-.5-1.6-.9-.5-.4-.9-.8-1.2-1.3-.4-.5-.6-1-.9-1.6-.2-.6-.4-1.2-.6-1.8-.1-.6-.2-1.3-.2-1.9v-2c0-.6,0-1.3.2-1.9.1-.6.3-1.2.5-1.8s.5-1.1.8-1.6c.3-.5.7-.9,1.2-1.3.5-.4,1-.6,1.5-.9.6-.2,1.2-.3,1.9-.3s1.5.1,2.2.4c.7.2,1.3.6,1.8,1,.5.5.9,1,1.2,1.7.3.6.5,1.4.6,2.2h-2.1c0-.5-.2-.9-.4-1.4-.2-.4-.4-.8-.7-1.1-.3-.3-.6-.5-1.1-.7-.4-.2-.9-.3-1.4-.3s-1,0-1.4.3c-.4.2-.7.4-1,.7s-.5.6-.7,1c-.2.4-.4.8-.5,1.2-.1.4-.2.9-.3,1.3,0,.5,0,.9,0,1.3v2c0,.4,0,.9.1,1.3,0,.5.2.9.3,1.3.1.4.3.9.5,1.2.2.4.5.7.8,1,.3.3.7.5,1.1.7.4.2.9.3,1.4.3.3,0,.6,0,.9,0,.3,0,.6,0,1-.2.3,0,.6-.2.9-.4.3-.2.5-.4.7-.6v-3.8s-3.4,0-3.4,0v-1.8h5.5v6.3ZM477.6,403.6h-5.7l-1.4,4.4h-2.2l5.5-17.1h1.8l5.4,17.1h-2.2l-1.3-4.4ZM472.5,401.7h4.5l-2.2-7.4-2.3,7.4ZM497.3,402.9c-.1.8-.3,1.5-.6,2.2-.3.7-.7,1.2-1.2,1.7-.5.5-1.1.8-1.7,1.1-.7.3-1.4.4-2.2.4s-1.3,0-1.9-.3c-.6-.2-1.1-.5-1.5-.8-.5-.4-.8-.8-1.2-1.2-.3-.5-.6-1-.8-1.6-.2-.6-.4-1.2-.5-1.8-.1-.6-.2-1.2-.2-1.9v-2.4c0-.6,0-1.3.2-1.9.1-.6.3-1.2.5-1.8.2-.6.5-1.1.8-1.6.3-.5.7-.9,1.2-1.3.4-.4,1-.6,1.5-.8.6-.2,1.2-.3,1.9-.3s1.6.1,2.3.4c.7.3,1.2.6,1.7,1.1.5.5.9,1.1,1.2,1.7.3.7.5,1.4.6,2.2h-2.2c0-.5-.2-1-.4-1.4-.2-.4-.4-.8-.7-1.2-.3-.3-.6-.6-1.1-.8-.4-.2-.9-.3-1.5-.3s-1,0-1.4.3c-.4.2-.7.4-1,.7-.3.3-.5.6-.7,1-.2.4-.3.8-.5,1.2-.1.4-.2.9-.3,1.3,0,.4,0,.9,0,1.3v2.4c0,.4,0,.9,0,1.3,0,.4.1.9.3,1.3.1.4.3.8.5,1.2.2.4.4.7.7,1,.3.3.6.5,1,.7.4.2.8.2,1.4.2s1.1,0,1.5-.3c.4-.2.8-.4,1.1-.8.3-.3.5-.7.7-1.1.2-.4.3-.9.4-1.4h2.2ZM511.3,403.6h-5.7l-1.4,4.4h-2.2l5.5-17.1h1.8l5.4,17.1h-2.2l-1.3-4.4ZM506.1,401.7h4.5l-2.2-7.4-2.3,7.4ZM528.1,403.6h-5.7l-1.4,4.4h-2.2l5.5-17.1h1.8l5.4,17.1h-2.2l-1.3-4.4ZM523,401.7h4.5l-2.2-7.4-2.3,7.4ZM544.9,403.6h-5.7l-1.4,4.4h-2.2l5.5-17.1h1.8l5.4,17.1h-2.2l-1.3-4.4ZM539.8,401.7h4.5l-2.2-7.4-2.3,7.4ZM561.7,403.6h-5.7l-1.4,4.4h-2.2l5.5-17.1h1.8l5.4,17.1h-2.2l-1.3-4.4ZM556.6,401.7h4.5l-2.2-7.4-2.3,7.4ZM578.5,403.6h-5.7l-1.4,4.4h-2.2l5.5-17.1h1.8l5.4,17.1h-2.2l-1.3-4.4ZM573.4,401.7h4.5l-2.2-7.4-2.3,7.4ZM598.7,392.8h-5.3v15.2h-2.1v-15.2h-5.3v-1.9h12.7v1.9ZM615,405.8c-.3.3-.5.6-.8.9-.3.2-.6.5-.9.7-.5.3-1.1.6-1.8.7-.6.2-1.3.2-2,.2-.7,0-1.4-.1-1.9-.3-.6-.2-1.1-.5-1.6-.9-.5-.4-.9-.8-1.2-1.3-.4-.5-.6-1-.9-1.6-.2-.6-.4-1.2-.6-1.8-.1-.6-.2-1.3-.2-1.9v-2c0-.6,0-1.3.2-1.9.1-.6.3-1.2.5-1.8s.5-1.1.8-1.6c.3-.5.7-.9,1.2-1.3.5-.4,1-.6,1.5-.9.6-.2,1.2-.3,1.9-.3s1.5.1,2.2.4c.7.2,1.3.6,1.8,1,.5.5.9,1,1.2,1.7.3.6.5,1.4.6,2.2h-2.1c0-.5-.2-.9-.4-1.4-.2-.4-.4-.8-.7-1.1-.3-.3-.6-.5-1.1-.7-.4-.2-.9-.3-1.4-.3s-1,0-1.4.3c-.4.2-.7.4-1,.7-.3.3-.5.6-.7,1-.2.4-.4.8-.5,1.2-.1.4-.2.9-.3,1.3,0,.5,0,.9,0,1.3v2c0,.4,0,.9.1,1.3,0,.5.2.9.3,1.3.1.4.3.9.5,1.2.2.4.5.7.8,1,.3.3.7.5,1.1.7.4.2.9.3,1.4.3.3,0,.6,0,.9,0,.3,0,.6,0,.9-.2.3,0,.6-.2.9-.4.3-.2.5-.4.7-.6v-3.8s-3.4,0-3.4,0v-1.8h5.5v6.3ZM631.8,405.8c-.3.3-.5.6-.8.9-.3.2-.6.5-.9.7-.5.3-1.1.6-1.8.7-.6.2-1.3.2-2,.2-.7,0-1.4-.1-1.9-.3-.6-.2-1.1-.5-1.6-.9-.5-.4-.9-.8-1.2-1.3-.4-.5-.6-1-.9-1.6-.2-.6-.4-1.2-.6-1.8-.1-.6-.2-1.3-.2-1.9v-2c0-.6,0-1.3.2-1.9.1-.6.3-1.2.5-1.8s.5-1.1.8-1.6c.3-.5.7-.9,1.2-1.3.5-.4,1-.6,1.5-.9.6-.2,1.2-.3,1.9-.3s1.5.1,2.2.4c.7.2,1.3.6,1.8,1,.5.5.9,1,1.2,1.7.3.6.5,1.4.6,2.2h-2.1c0-.5-.2-.9-.4-1.4-.2-.4-.4-.8-.7-1.1-.3-.3-.6-.5-1.1-.7-.4-.2-.9-.3-1.4-.3s-1,0-1.4.3c-.4.2-.7.4-1,.7s-.5.6-.7,1c-.2.4-.4.8-.5,1.2-.1.4-.2.9-.3,1.3,0,.5,0,.9,0,1.3v2c0,.4,0,.9.1,1.3,0,.5.2.9.3,1.3.1.4.3.9.5,1.2.2.4.5.7.8,1,.3.3.7.5,1.1.7.4.2.9.3,1.4.3.3,0,.6,0,.9,0,.3,0,.6,0,.9-.2.3,0,.6-.2.9-.4.3-.2.5-.4.7-.6v-3.8s-3.4,0-3.4,0v-1.8h5.5v6.3ZM649.1,392.8h-5.3v15.2h-2.1v-15.2h-5.3v-1.9h12.7v1.9ZM662.6,403.6h-5.7l-1.4,4.4h-2.2l5.5-17.1h1.8l5.4,17.1h-2.2l-1.3-4.4ZM657.5,401.7h4.5l-2.2-7.4-2.3,7.4ZM679.4,403.6h-5.7l-1.4,4.4h-2.2l5.5-17.1h1.8l5.4,17.1h-2.2l-1.3-4.4ZM674.3,401.7h4.5l-2.2-7.4-2.3,7.4ZM696.2,403.6h-5.7l-1.4,4.4h-2.2l5.5-17.1h1.8l5.4,17.1h-2.2l-1.3-4.4ZM691.1,401.7h4.5l-2.2-7.4-2.3,7.4ZM716.4,392.8h-5.3v15.2h-2.1v-15.2h-5.3v-1.9h12.7v1.9ZM733.2,392.8h-5.3v15.2h-2.1v-15.2h-5.3v-1.9h12.7v1.9ZM750,392.8h-5.3v15.2h-2.1v-15.2h-5.3v-1.9h12.7v1.9ZM763.5,403.6h-5.7l-1.4,4.4h-2.2l5.5-17.1h1.8l5.4,17.1h-2.2l-1.3-4.4ZM758.4,401.7h4.5l-2.2-7.4-2.3,7.4ZM783.6,392.8h-5.3v15.2h-2.1v-15.2h-5.3v-1.9h12.7v1.9ZM800.5,392.8h-5.3v15.2h-2.1v-15.2h-5.3v-1.9h12.7v1.9ZM813.9,403.6h-5.7l-1.4,4.4h-2.2l5.5-17.1h1.8l5.4,17.1h-2.2l-1.3-4.4ZM808.8,401.7h4.5l-2.2-7.4-2.3,7.4ZM834.1,392.8h-5.3v15.2h-2.1v-15.2h-5.3v-1.9h12.7v1.9ZM847.5,403.6h-5.7l-1.4,4.4h-2.2l5.5-17.1h1.8l5.4,17.1h-2.2l-1.3-4.4ZM842.4,401.7h4.5l-2.2-7.4-2.3,7.4ZM867.3,402.9c-.1.8-.3,1.5-.6,2.2-.3.7-.7,1.2-1.2,1.7-.5.5-1.1.8-1.7,1.1-.7.3-1.4.4-2.2.4s-1.3,0-1.9-.3c-.6-.2-1.1-.5-1.5-.8-.5-.4-.8-.8-1.2-1.2-.3-.5-.6-1-.8-1.6-.2-.6-.4-1.2-.5-1.8-.1-.6-.2-1.2-.2-1.9v-2.4c0-.6,0-1.3.2-1.9.1-.6.3-1.2.5-1.8.2-.6.5-1.1.8-1.6.3-.5.7-.9,1.2-1.3.4-.4,1-.6,1.5-.8.6-.2,1.2-.3,1.9-.3s1.6.1,2.3.4c.7.3,1.2.6,1.7,1.1.5.5.9,1.1,1.2,1.7.3.7.5,1.4.6,2.2h-2.2c0-.5-.2-1-.4-1.4-.2-.4-.4-.8-.7-1.2s-.6-.6-1.1-.8c-.4-.2-.9-.3-1.5-.3s-1,0-1.4.3c-.4.2-.7.4-1,.7-.3.3-.5.6-.7,1-.2.4-.3.8-.5,1.2-.1.4-.2.9-.3,1.3,0,.4,0,.9,0,1.3v2.4c0,.4,0,.9,0,1.3,0,.4.1.9.3,1.3.1.4.3.8.5,1.2.2.4.4.7.7,1,.3.3.6.5,1,.7.4.2.8.2,1.4.2s1.1,0,1.5-.3c.4-.2.8-.4,1.1-.8.3-.3.5-.7.7-1.1.2-.4.3-.9.4-1.4h2.2ZM884.5,392.8h-5.3v15.2h-2.1v-15.2h-5.3v-1.9h12.7v1.9ZM898,403.6h-5.7l-1.4,4.4h-2.2l5.5-17.1h1.8l5.4,17.1h-2.2l-1.3-4.4ZM892.9,401.7h4.5l-2.2-7.4-2.3,7.4ZM918.2,392.8h-5.3v15.2h-2.1v-15.2h-5.3v-1.9h12.7v1.9ZM430.5,424.8h-5.3v15.2h-2.1v-15.2h-5.3v-1.9h12.7v1.9ZM447.4,424.8h-5.3v15.2h-2.1v-15.2h-5.3v-1.9h12.7v1.9ZM463.7,437.8c-.3.3-.5.6-.8.9-.3.2-.6.5-.9.7-.5.3-1.1.6-1.8.7-.6.2-1.3.2-2,.2-.7,0-1.4-.1-1.9-.3-.6-.2-1.1-.5-1.6-.9-.5-.4-.9-.8-1.2-1.3-.4-.5-.6-1-.9-1.6-.2-.6-.4-1.2-.6-1.8-.1-.6-.2-1.3-.2-1.9v-2c0-.6,0-1.3.2-1.9.1-.6.3-1.2.5-1.8s.5-1.1.8-1.6c.3-.5.7-.9,1.2-1.3.5-.4,1-.6,1.5-.9.6-.2,1.2-.3,1.9-.3s1.5.1,2.2.4c.7.2,1.3.6,1.8,1,.5.5.9,1,1.2,1.7.3.6.5,1.4.6,2.2h-2.1c0-.5-.2-.9-.4-1.4-.2-.4-.4-.8-.7-1.1-.3-.3-.6-.5-1.1-.7-.4-.2-.9-.3-1.4-.3s-1,0-1.4.3c-.4.2-.7.4-1,.7s-.5.6-.7,1c-.2.4-.4.8-.5,1.2-.1.4-.2.9-.3,1.3,0,.5,0,.9,0,1.3v2c0,.4,0,.9.1,1.3,0,.5.2.9.3,1.3.1.4.3.9.5,1.2.2.4.5.7.8,1,.3.3.7.5,1.1.7.4.2.9.3,1.4.3.3,0,.6,0,.9,0,.3,0,.6,0,1-.2.3,0,.6-.2.9-.4.3-.2.5-.4.7-.6v-3.8s-3.4,0-3.4,0v-1.8h5.5v6.3ZM477.6,435.6h-5.7l-1.4,4.4h-2.2l5.5-17.1h1.8l5.4,17.1h-2.2l-1.3-4.4ZM472.5,433.7h4.5l-2.2-7.4-2.3,7.4ZM497.3,434.9c-.1.8-.3,1.5-.6,2.2-.3.7-.7,1.2-1.2,1.7-.5.5-1.1.8-1.7,1.1-.7.3-1.4.4-2.2.4s-1.3,0-1.9-.3c-.6-.2-1.1-.5-1.5-.8-.5-.4-.8-.8-1.2-1.2-.3-.5-.6-1-.8-1.6-.2-.6-.4-1.2-.5-1.8-.1-.6-.2-1.2-.2-1.9v-2.4c0-.6,0-1.3.2-1.9.1-.6.3-1.2.5-1.8.2-.6.5-1.1.8-1.6.3-.5.7-.9,1.2-1.3.4-.4,1-.6,1.5-.8.6-.2,1.2-.3,1.9-.3s1.6.1,2.3.4c.7.3,1.2.6,1.7,1.1.5.5.9,1.1,1.2,1.7.3.7.5,1.4.6,2.2h-2.2c0-.5-.2-1-.4-1.4-.2-.4-.4-.8-.7-1.2-.3-.3-.6-.6-1.1-.8-.4-.2-.9-.3-1.5-.3s-1,0-1.4.3c-.4.2-.7.4-1,.7-.3.3-.5.6-.7,1-.2.4-.3.8-.5,1.2-.1.4-.2.9-.3,1.3,0,.4,0,.9,0,1.3v2.4c0,.4,0,.9,0,1.3,0,.4.1.9.3,1.3.1.4.3.8.5,1.2.2.4.4.7.7,1,.3.3.6.5,1,.7.4.2.8.2,1.4.2s1.1,0,1.5-.3c.4-.2.8-.4,1.1-.8.3-.3.5-.7.7-1.1.2-.4.3-.9.4-1.4h2.2ZM511.3,435.6h-5.7l-1.4,4.4h-2.2l5.5-17.1h1.8l5.4,17.1h-2.2l-1.3-4.4ZM506.1,433.7h4.5l-2.2-7.4-2.3,7.4ZM528.1,435.6h-5.7l-1.4,4.4h-2.2l5.5-17.1h1.8l5.4,17.1h-2.2l-1.3-4.4ZM523,433.7h4.5l-2.2-7.4-2.3,7.4ZM544.9,435.6h-5.7l-1.4,4.4h-2.2l5.5-17.1h1.8l5.4,17.1h-2.2l-1.3-4.4ZM539.8,433.7h4.5l-2.2-7.4-2.3,7.4ZM561.7,435.6h-5.7l-1.4,4.4h-2.2l5.5-17.1h1.8l5.4,17.1h-2.2l-1.3-4.4ZM556.6,433.7h4.5l-2.2-7.4-2.3,7.4ZM581.4,434.9c-.1.8-.3,1.5-.6,2.2-.3.7-.7,1.2-1.2,1.7-.5.5-1.1.8-1.7,1.1-.7.3-1.4.4-2.2.4s-1.3,0-1.9-.3c-.6-.2-1.1-.5-1.5-.8-.5-.4-.8-.8-1.2-1.2-.3-.5-.6-1-.8-1.6-.2-.6-.4-1.2-.5-1.8-.1-.6-.2-1.2-.2-1.9v-2.4c0-.6,0-1.3.2-1.9.1-.6.3-1.2.5-1.8.2-.6.5-1.1.8-1.6.3-.5.7-.9,1.2-1.3.4-.4,1-.6,1.5-.8.6-.2,1.2-.3,1.9-.3s1.6.1,2.3.4c.7.3,1.2.6,1.7,1.1.5.5.9,1.1,1.2,1.7.3.7.5,1.4.6,2.2h-2.2c0-.5-.2-1-.4-1.4-.2-.4-.4-.8-.7-1.2-.3-.3-.6-.6-1.1-.8-.4-.2-.9-.3-1.5-.3s-1,0-1.4.3c-.4.2-.7.4-1,.7-.3.3-.5.6-.7,1-.2.4-.3.8-.5,1.2-.1.4-.2.9-.3,1.3,0,.4,0,.9,0,1.3v2.4c0,.4,0,.9,0,1.3,0,.4.1.9.3,1.3.1.4.3.8.5,1.2.2.4.4.7.7,1,.3.3.6.5,1,.7.4.2.8.2,1.4.2s1.1,0,1.5-.3c.4-.2.8-.4,1.1-.8.3-.3.5-.7.7-1.1.2-.4.3-.9.4-1.4h2.2ZM598.2,434.9c-.1.8-.3,1.5-.6,2.2-.3.7-.7,1.2-1.2,1.7-.5.5-1.1.8-1.7,1.1-.7.3-1.4.4-2.2.4s-1.3,0-1.9-.3c-.6-.2-1.1-.5-1.5-.8-.5-.4-.8-.8-1.2-1.2-.3-.5-.6-1-.8-1.6-.2-.6-.4-1.2-.5-1.8-.1-.6-.2-1.2-.2-1.9v-2.4c0-.6,0-1.3.2-1.9.1-.6.3-1.2.5-1.8.2-.6.5-1.1.8-1.6.3-.5.7-.9,1.2-1.3.4-.4,1-.6,1.5-.8.6-.2,1.2-.3,1.9-.3s1.6.1,2.3.4c.7.3,1.2.6,1.7,1.1.5.5.9,1.1,1.2,1.7.3.7.5,1.4.6,2.2h-2.2c0-.5-.2-1-.4-1.4-.2-.4-.4-.8-.7-1.2s-.6-.6-1.1-.8c-.4-.2-.9-.3-1.5-.3s-1,0-1.4.3c-.4.2-.7.4-1,.7-.3.3-.5.6-.7,1-.2.4-.3.8-.5,1.2-.1.4-.2.9-.3,1.3,0,.4,0,.9,0,1.3v2.4c0,.4,0,.9,0,1.3,0,.4.1.9.3,1.3.1.4.3.8.5,1.2.2.4.4.7.7,1,.3.3.6.5,1,.7.4.2.8.2,1.4.2s1.1,0,1.5-.3c.4-.2.8-.4,1.1-.8.3-.3.5-.7.7-1.1.2-.4.3-.9.4-1.4h2.2ZM612.1,435.6h-5.7l-1.4,4.4h-2.2l5.5-17.1h1.8l5.4,17.1h-2.2l-1.3-4.4ZM607,433.7h4.5l-2.2-7.4-2.3,7.4ZM631.8,437.8c-.3.3-.5.6-.8.9-.3.2-.6.5-.9.7-.5.3-1.1.6-1.8.7-.6.2-1.3.2-2,.2-.7,0-1.4-.1-1.9-.3-.6-.2-1.1-.5-1.6-.9-.5-.4-.9-.8-1.2-1.3-.4-.5-.6-1-.9-1.6-.2-.6-.4-1.2-.6-1.8-.1-.6-.2-1.3-.2-1.9v-2c0-.6,0-1.3.2-1.9.1-.6.3-1.2.5-1.8s.5-1.1.8-1.6c.3-.5.7-.9,1.2-1.3.5-.4,1-.6,1.5-.9.6-.2,1.2-.3,1.9-.3s1.5.1,2.2.4c.7.2,1.3.6,1.8,1,.5.5.9,1,1.2,1.7.3.6.5,1.4.6,2.2h-2.1c0-.5-.2-.9-.4-1.4-.2-.4-.4-.8-.7-1.1-.3-.3-.6-.5-1.1-.7-.4-.2-.9-.3-1.4-.3s-1,0-1.4.3c-.4.2-.7.4-1,.7s-.5.6-.7,1c-.2.4-.4.8-.5,1.2-.1.4-.2.9-.3,1.3,0,.5,0,.9,0,1.3v2c0,.4,0,.9.1,1.3,0,.5.2.9.3,1.3.1.4.3.9.5,1.2.2.4.5.7.8,1,.3.3.7.5,1.1.7.4.2.9.3,1.4.3.3,0,.6,0,.9,0,.3,0,.6,0,.9-.2.3,0,.6-.2.9-.4.3-.2.5-.4.7-.6v-3.8s-3.4,0-3.4,0v-1.8h5.5v6.3ZM649.1,424.8h-5.3v15.2h-2.1v-15.2h-5.3v-1.9h12.7v1.9ZM665.9,424.8h-5.3v15.2h-2.1v-15.2h-5.3v-1.9h12.7v1.9ZM682.3,434.9c-.1.8-.3,1.5-.6,2.2-.3.7-.7,1.2-1.2,1.7-.5.5-1.1.8-1.7,1.1-.7.3-1.4.4-2.2.4s-1.3,0-1.9-.3c-.6-.2-1.1-.5-1.5-.8-.5-.4-.8-.8-1.2-1.2-.3-.5-.6-1-.8-1.6-.2-.6-.4-1.2-.5-1.8-.1-.6-.2-1.2-.2-1.9v-2.4c0-.6,0-1.3.2-1.9.1-.6.3-1.2.5-1.8.2-.6.5-1.1.8-1.6.3-.5.7-.9,1.2-1.3.4-.4,1-.6,1.5-.8.6-.2,1.2-.3,1.9-.3s1.6.1,2.3.4c.7.3,1.2.6,1.7,1.1.5.5.9,1.1,1.2,1.7.3.7.5,1.4.6,2.2h-2.2c0-.5-.2-1-.4-1.4-.2-.4-.4-.8-.7-1.2s-.6-.6-1.1-.8c-.4-.2-.9-.3-1.5-.3s-1,0-1.4.3c-.4.2-.7.4-1,.7-.3.3-.5.6-.7,1-.2.4-.3.8-.5,1.2-.1.4-.2.9-.3,1.3,0,.4,0,.9,0,1.3v2.4c0,.4,0,.9,0,1.3,0,.4.1.9.3,1.3.1.4.3.8.5,1.2.2.4.4.7.7,1,.3.3.6.5,1,.7.4.2.8.2,1.4.2s1.1,0,1.5-.3c.4-.2.8-.4,1.1-.8.3-.3.5-.7.7-1.1.2-.4.3-.9.4-1.4h2.2ZM699.6,424.8h-5.3v15.2h-2.1v-15.2h-5.3v-1.9h12.7v1.9ZM713,435.6h-5.7l-1.4,4.4h-2.2l5.5-17.1h1.8l5.4,17.1h-2.2l-1.3-4.4ZM707.9,433.7h4.5l-2.2-7.4-2.3,7.4ZM733.2,424.8h-5.3v15.2h-2.1v-15.2h-5.3v-1.9h12.7v1.9ZM750,424.8h-5.3v15.2h-2.1v-15.2h-5.3v-1.9h12.7v1.9ZM763.5,435.6h-5.7l-1.4,4.4h-2.2l5.5-17.1h1.8l5.4,17.1h-2.2l-1.3-4.4ZM758.4,433.7h4.5l-2.2-7.4-2.3,7.4ZM783.6,424.8h-5.3v15.2h-2.1v-15.2h-5.3v-1.9h12.7v1.9ZM800.5,424.8h-5.3v15.2h-2.1v-15.2h-5.3v-1.9h12.7v1.9ZM813.9,435.6h-5.7l-1.4,4.4h-2.2l5.5-17.1h1.8l5.4,17.1h-2.2l-1.3-4.4ZM808.8,433.7h4.5l-2.2-7.4-2.3,7.4ZM834.1,424.8h-5.3v15.2h-2.1v-15.2h-5.3v-1.9h12.7v1.9ZM847.5,435.6h-5.7l-1.4,4.4h-2.2l5.5-17.1h1.8l5.4,17.1h-2.2l-1.3-4.4ZM842.4,433.7h4.5l-2.2-7.4-2.3,7.4ZM867.7,424.8h-5.3v15.2h-2.1v-15.2h-5.3v-1.9h12.7v1.9ZM884.5,424.8h-5.3v15.2h-2.1v-15.2h-5.3v-1.9h12.7v1.9ZM898,435.6h-5.7l-1.4,4.4h-2.2l5.5-17.1h1.8l5.4,17.1h-2.2l-1.3-4.4ZM892.9,433.7h4.5l-2.2-7.4-2.3,7.4ZM918.2,424.8h-5.3v15.2h-2.1v-15.2h-5.3v-1.9h12.7v1.9ZM430.5,456.8h-5.3v15.2h-2.1v-15.2h-5.3v-1.9h12.7v1.9ZM447.4,456.8h-5.3v15.2h-2.1v-15.2h-5.3v-1.9h12.7v1.9ZM463.7,469.8c-.3.3-.5.6-.8.9-.3.2-.6.5-.9.7-.5.3-1.1.6-1.8.7-.6.2-1.3.2-2,.2-.7,0-1.4-.1-1.9-.3-.6-.2-1.1-.5-1.6-.9-.5-.4-.9-.8-1.2-1.3-.4-.5-.6-1-.9-1.6-.2-.6-.4-1.2-.6-1.8-.1-.6-.2-1.3-.2-1.9v-2c0-.6,0-1.3.2-1.9.1-.6.3-1.2.5-1.8s.5-1.1.8-1.6c.3-.5.7-.9,1.2-1.3.5-.4,1-.6,1.5-.9.6-.2,1.2-.3,1.9-.3s1.5.1,2.2.4c.7.2,1.3.6,1.8,1,.5.5.9,1,1.2,1.7.3.6.5,1.4.6,2.2h-2.1c0-.5-.2-.9-.4-1.4-.2-.4-.4-.8-.7-1.1-.3-.3-.6-.5-1.1-.7-.4-.2-.9-.3-1.4-.3s-1,0-1.4.3c-.4.2-.7.4-1,.7s-.5.6-.7,1c-.2.4-.4.8-.5,1.2-.1.4-.2.9-.3,1.3,0,.5,0,.9,0,1.3v2c0,.4,0,.9.1,1.3,0,.5.2.9.3,1.3.1.4.3.9.5,1.2.2.4.5.7.8,1,.3.3.7.5,1.1.7.4.2.9.3,1.4.3.3,0,.6,0,.9,0,.3,0,.6,0,1-.2.3,0,.6-.2.9-.4.3-.2.5-.4.7-.6v-3.8s-3.4,0-3.4,0v-1.8h5.5v6.3ZM477.6,467.6h-5.7l-1.4,4.4h-2.2l5.5-17.1h1.8l5.4,17.1h-2.2l-1.3-4.4ZM472.5,465.7h4.5l-2.2-7.4-2.3,7.4ZM497.3,466.9c-.1.8-.3,1.5-.6,2.2-.3.7-.7,1.2-1.2,1.7-.5.5-1.1.8-1.7,1.1-.7.3-1.4.4-2.2.4s-1.3,0-1.9-.3c-.6-.2-1.1-.5-1.5-.8-.5-.4-.8-.8-1.2-1.2-.3-.5-.6-1-.8-1.6-.2-.6-.4-1.2-.5-1.8-.1-.6-.2-1.2-.2-1.9v-2.4c0-.6,0-1.3.2-1.9.1-.6.3-1.2.5-1.8.2-.6.5-1.1.8-1.6.3-.5.7-.9,1.2-1.3.4-.4,1-.6,1.5-.8.6-.2,1.2-.3,1.9-.3s1.6.1,2.3.4c.7.3,1.2.6,1.7,1.1.5.5.9,1.1,1.2,1.7.3.7.5,1.4.6,2.2h-2.2c0-.5-.2-1-.4-1.4-.2-.4-.4-.8-.7-1.2-.3-.3-.6-.6-1.1-.8-.4-.2-.9-.3-1.5-.3s-1,0-1.4.3c-.4.2-.7.4-1,.7-.3.3-.5.6-.7,1-.2.4-.3.8-.5,1.2-.1.4-.2.9-.3,1.3,0,.4,0,.9,0,1.3v2.4c0,.4,0,.9,0,1.3,0,.4.1.9.3,1.3.1.4.3.8.5,1.2.2.4.4.7.7,1,.3.3.6.5,1,.7.4.2.8.2,1.4.2s1.1,0,1.5-.3c.4-.2.8-.4,1.1-.8.3-.3.5-.7.7-1.1.2-.4.3-.9.4-1.4h2.2ZM514.6,456.8h-5.3v15.2h-2.1v-15.2h-5.3v-1.9h12.7v1.9ZM531.4,456.8h-5.3v15.2h-2.1v-15.2h-5.3v-1.9h12.7v1.9ZM544.9,467.6h-5.7l-1.4,4.4h-2.2l5.5-17.1h1.8l5.4,17.1h-2.2l-1.3-4.4ZM539.8,465.7h4.5l-2.2-7.4-2.3,7.4ZM561.7,467.6h-5.7l-1.4,4.4h-2.2l5.5-17.1h1.8l5.4,17.1h-2.2l-1.3-4.4ZM556.6,465.7h4.5l-2.2-7.4-2.3,7.4ZM581.4,469.8c-.3.3-.5.6-.8.9-.3.2-.6.5-.9.7-.5.3-1.1.6-1.8.7-.6.2-1.3.2-2,.2-.7,0-1.4-.1-1.9-.3-.6-.2-1.1-.5-1.6-.9-.5-.4-.9-.8-1.2-1.3-.4-.5-.6-1-.9-1.6-.2-.6-.4-1.2-.6-1.8-.1-.6-.2-1.3-.2-1.9v-2c0-.6,0-1.3.2-1.9.1-.6.3-1.2.5-1.8.2-.6.5-1.1.8-1.6.3-.5.7-.9,1.2-1.3.5-.4,1-.6,1.5-.9.6-.2,1.2-.3,1.9-.3s1.5.1,2.2.4c.7.2,1.3.6,1.8,1,.5.5.9,1,1.2,1.7.3.6.5,1.4.6,2.2h-2.1c0-.5-.2-.9-.4-1.4-.2-.4-.4-.8-.7-1.1-.3-.3-.6-.5-1.1-.7-.4-.2-.9-.3-1.4-.3s-1,0-1.4.3c-.4.2-.7.4-1,.7-.3.3-.5.6-.7,1-.2.4-.4.8-.5,1.2-.1.4-.2.9-.3,1.3,0,.5,0,.9,0,1.3v2c0,.4,0,.9.1,1.3,0,.5.2.9.3,1.3.1.4.3.9.5,1.2s.5.7.8,1c.3.3.7.5,1.1.7.4.2.9.3,1.4.3.3,0,.6,0,.9,0,.3,0,.6,0,.9-.2s.6-.2.9-.4c.3-.2.5-.4.7-.6v-3.8s-3.4,0-3.4,0v-1.8h5.5v6.3ZM598.2,469.8c-.3.3-.5.6-.8.9-.3.2-.6.5-.9.7-.5.3-1.1.6-1.8.7-.6.2-1.3.2-2,.2-.7,0-1.4-.1-1.9-.3-.6-.2-1.1-.5-1.6-.9-.5-.4-.9-.8-1.2-1.3-.4-.5-.6-1-.9-1.6-.2-.6-.4-1.2-.6-1.8-.1-.6-.2-1.3-.2-1.9v-2c0-.6,0-1.3.2-1.9.1-.6.3-1.2.5-1.8s.5-1.1.8-1.6c.3-.5.7-.9,1.2-1.3.5-.4,1-.6,1.5-.9.6-.2,1.2-.3,1.9-.3s1.5.1,2.2.4c.7.2,1.3.6,1.8,1,.5.5.9,1,1.2,1.7.3.6.5,1.4.6,2.2h-2.1c0-.5-.2-.9-.4-1.4-.2-.4-.4-.8-.7-1.1-.3-.3-.6-.5-1.1-.7-.4-.2-.9-.3-1.4-.3s-1,0-1.4.3c-.4.2-.7.4-1,.7-.3.3-.5.6-.7,1-.2.4-.4.8-.5,1.2-.1.4-.2.9-.3,1.3,0,.5,0,.9,0,1.3v2c0,.4,0,.9.1,1.3,0,.5.2.9.3,1.3.1.4.3.9.5,1.2s.5.7.8,1c.3.3.7.5,1.1.7.4.2.9.3,1.4.3.3,0,.6,0,.9,0,.3,0,.6,0,.9-.2.3,0,.6-.2.9-.4.3-.2.5-.4.7-.6v-3.8s-3.4,0-3.4,0v-1.8h5.5v6.3ZM615,469.8c-.3.3-.5.6-.8.9-.3.2-.6.5-.9.7-.5.3-1.1.6-1.8.7-.6.2-1.3.2-2,.2-.7,0-1.4-.1-1.9-.3-.6-.2-1.1-.5-1.6-.9-.5-.4-.9-.8-1.2-1.3-.4-.5-.6-1-.9-1.6-.2-.6-.4-1.2-.6-1.8-.1-.6-.2-1.3-.2-1.9v-2c0-.6,0-1.3.2-1.9.1-.6.3-1.2.5-1.8s.5-1.1.8-1.6c.3-.5.7-.9,1.2-1.3.5-.4,1-.6,1.5-.9.6-.2,1.2-.3,1.9-.3s1.5.1,2.2.4c.7.2,1.3.6,1.8,1,.5.5.9,1,1.2,1.7.3.6.5,1.4.6,2.2h-2.1c0-.5-.2-.9-.4-1.4-.2-.4-.4-.8-.7-1.1-.3-.3-.6-.5-1.1-.7-.4-.2-.9-.3-1.4-.3s-1,0-1.4.3c-.4.2-.7.4-1,.7-.3.3-.5.6-.7,1-.2.4-.4.8-.5,1.2-.1.4-.2.9-.3,1.3,0,.5,0,.9,0,1.3v2c0,.4,0,.9.1,1.3,0,.5.2.9.3,1.3.1.4.3.9.5,1.2.2.4.5.7.8,1,.3.3.7.5,1.1.7.4.2.9.3,1.4.3.3,0,.6,0,.9,0,.3,0,.6,0,.9-.2.3,0,.6-.2.9-.4.3-.2.5-.4.7-.6v-3.8s-3.4,0-3.4,0v-1.8h5.5v6.3ZM631.8,469.8c-.3.3-.5.6-.8.9-.3.2-.6.5-.9.7-.5.3-1.1.6-1.8.7-.6.2-1.3.2-2,.2-.7,0-1.4-.1-1.9-.3-.6-.2-1.1-.5-1.6-.9-.5-.4-.9-.8-1.2-1.3-.4-.5-.6-1-.9-1.6-.2-.6-.4-1.2-.6-1.8-.1-.6-.2-1.3-.2-1.9v-2c0-.6,0-1.3.2-1.9.1-.6.3-1.2.5-1.8s.5-1.1.8-1.6c.3-.5.7-.9,1.2-1.3.5-.4,1-.6,1.5-.9.6-.2,1.2-.3,1.9-.3s1.5.1,2.2.4c.7.2,1.3.6,1.8,1,.5.5.9,1,1.2,1.7.3.6.5,1.4.6,2.2h-2.1c0-.5-.2-.9-.4-1.4-.2-.4-.4-.8-.7-1.1-.3-.3-.6-.5-1.1-.7-.4-.2-.9-.3-1.4-.3s-1,0-1.4.3c-.4.2-.7.4-1,.7s-.5.6-.7,1c-.2.4-.4.8-.5,1.2-.1.4-.2.9-.3,1.3,0,.5,0,.9,0,1.3v2c0,.4,0,.9.1,1.3,0,.5.2.9.3,1.3.1.4.3.9.5,1.2.2.4.5.7.8,1,.3.3.7.5,1.1.7.4.2.9.3,1.4.3.3,0,.6,0,.9,0,.3,0,.6,0,.9-.2.3,0,.6-.2.9-.4.3-.2.5-.4.7-.6v-3.8s-3.4,0-3.4,0v-1.8h5.5v6.3ZM649.1,456.8h-5.3v15.2h-2.1v-15.2h-5.3v-1.9h12.7v1.9ZM662.6,467.6h-5.7l-1.4,4.4h-2.2l5.5-17.1h1.8l5.4,17.1h-2.2l-1.3-4.4ZM657.5,465.7h4.5l-2.2-7.4-2.3,7.4ZM682.8,456.8h-5.3v15.2h-2.1v-15.2h-5.3v-1.9h12.7v1.9ZM696.2,467.6h-5.7l-1.4,4.4h-2.2l5.5-17.1h1.8l5.4,17.1h-2.2l-1.3-4.4ZM691.1,465.7h4.5l-2.2-7.4-2.3,7.4ZM713,467.6h-5.7l-1.4,4.4h-2.2l5.5-17.1h1.8l5.4,17.1h-2.2l-1.3-4.4ZM707.9,465.7h4.5l-2.2-7.4-2.3,7.4ZM733.2,456.8h-5.3v15.2h-2.1v-15.2h-5.3v-1.9h12.7v1.9ZM750,456.8h-5.3v15.2h-2.1v-15.2h-5.3v-1.9h12.7v1.9ZM766.4,469.8c-.3.3-.5.6-.8.9-.3.2-.6.5-.9.7-.5.3-1.1.6-1.8.7-.6.2-1.3.2-2,.2-.7,0-1.4-.1-1.9-.3-.6-.2-1.1-.5-1.6-.9-.5-.4-.9-.8-1.2-1.3-.4-.5-.6-1-.9-1.6-.2-.6-.4-1.2-.5-1.8-.1-.6-.2-1.3-.2-1.9v-2c0-.6,0-1.3.2-1.9.1-.6.3-1.2.5-1.8.2-.6.5-1.1.8-1.6.3-.5.7-.9,1.2-1.3.5-.4,1-.6,1.5-.9.6-.2,1.2-.3,1.9-.3s1.5.1,2.2.4c.7.2,1.3.6,1.8,1,.5.5.9,1,1.2,1.7.3.6.5,1.4.6,2.2h-2.1c0-.5-.2-.9-.4-1.4-.2-.4-.4-.8-.7-1.1-.3-.3-.6-.5-1.1-.7-.4-.2-.9-.3-1.4-.3s-1,0-1.4.3c-.4.2-.7.4-1,.7s-.5.6-.7,1c-.2.4-.4.8-.5,1.2-.1.4-.2.9-.3,1.3,0,.5,0,.9,0,1.3v2c0,.4,0,.9.1,1.3,0,.5.2.9.3,1.3.1.4.3.9.5,1.2.2.4.5.7.8,1,.3.3.7.5,1.1.7.4.2.9.3,1.4.3.3,0,.6,0,.9,0,.3,0,.6,0,.9-.2.3,0,.6-.2.9-.4.3-.2.5-.4.7-.6v-3.8s-3.4,0-3.4,0v-1.8h5.5v6.3ZM780.3,467.6h-5.7l-1.4,4.4h-2.2l5.5-17.1h1.8l5.4,17.1h-2.2l-1.3-4.4ZM775.2,465.7h4.5l-2.2-7.4-2.3,7.4ZM800.5,456.8h-5.3v15.2h-2.1v-15.2h-5.3v-1.9h12.7v1.9ZM813.9,467.6h-5.7l-1.4,4.4h-2.2l5.5-17.1h1.8l5.4,17.1h-2.2l-1.3-4.4ZM808.8,465.7h4.5l-2.2-7.4-2.3,7.4ZM834.1,456.8h-5.3v15.2h-2.1v-15.2h-5.3v-1.9h12.7v1.9ZM847.5,467.6h-5.7l-1.4,4.4h-2.2l5.5-17.1h1.8l5.4,17.1h-2.2l-1.3-4.4ZM842.4,465.7h4.5l-2.2-7.4-2.3,7.4ZM864.3,467.6h-5.7l-1.4,4.4h-2.2l5.5-17.1h1.8l5.4,17.1h-2.2l-1.3-4.4ZM859.2,465.7h4.5l-2.2-7.4-2.3,7.4ZM884.5,456.8h-5.3v15.2h-2.1v-15.2h-5.3v-1.9h12.7v1.9ZM900.9,466.9c-.1.8-.3,1.5-.6,2.2-.3.7-.7,1.2-1.2,1.7-.5.5-1.1.8-1.7,1.1-.7.3-1.4.4-2.2.4s-1.3,0-1.9-.3c-.6-.2-1.1-.5-1.5-.8-.5-.4-.8-.8-1.2-1.2-.3-.5-.6-1-.8-1.6-.2-.6-.4-1.2-.5-1.8-.1-.6-.2-1.2-.2-1.9v-2.4c0-.6,0-1.3.2-1.9.1-.6.3-1.2.5-1.8.2-.6.5-1.1.8-1.6.3-.5.7-.9,1.2-1.3.4-.4,1-.6,1.5-.8.6-.2,1.2-.3,1.9-.3s1.6.1,2.3.4c.7.3,1.2.6,1.7,1.1.5.5.9,1.1,1.2,1.7.3.7.5,1.4.6,2.2h-2.2c0-.5-.2-1-.4-1.4-.2-.4-.4-.8-.7-1.2s-.6-.6-1.1-.8c-.4-.2-.9-.3-1.5-.3s-1,0-1.4.3c-.4.2-.7.4-1,.7-.3.3-.5.6-.7,1-.2.4-.3.8-.5,1.2-.1.4-.2.9-.3,1.3,0,.4,0,.9,0,1.3v2.4c0,.4,0,.9,0,1.3,0,.4.1.9.3,1.3.1.4.3.8.5,1.2.2.4.4.7.7,1,.3.3.6.5,1,.7.4.2.8.2,1.4.2s1.1,0,1.5-.3c.4-.2.8-.4,1.1-.8.3-.3.5-.7.7-1.1.2-.4.3-.9.4-1.4h2.2ZM918.2,456.8h-5.3v15.2h-2.1v-15.2h-5.3v-1.9h12.7v1.9ZM430.5,488.8h-5.3v15.2h-2.1v-15.2h-5.3v-1.9h12.7v1.9ZM447.4,488.8h-5.3v15.2h-2.1v-15.2h-5.3v-1.9h12.7v1.9ZM463.7,501.8c-.3.3-.5.6-.8.9-.3.2-.6.5-.9.7-.5.3-1.1.6-1.8.7-.6.2-1.3.2-2,.2-.7,0-1.4-.1-1.9-.3-.6-.2-1.1-.5-1.6-.9-.5-.4-.9-.8-1.2-1.3-.4-.5-.6-1-.9-1.6-.2-.6-.4-1.2-.6-1.8-.1-.6-.2-1.3-.2-1.9v-2c0-.6,0-1.3.2-1.9.1-.6.3-1.2.5-1.8s.5-1.1.8-1.6c.3-.5.7-.9,1.2-1.3.5-.4,1-.6,1.5-.9.6-.2,1.2-.3,1.9-.3s1.5.1,2.2.4c.7.2,1.3.6,1.8,1,.5.5.9,1,1.2,1.7.3.6.5,1.4.6,2.2h-2.1c0-.5-.2-.9-.4-1.4-.2-.4-.4-.8-.7-1.1-.3-.3-.6-.5-1.1-.7-.4-.2-.9-.3-1.4-.3s-1,0-1.4.3c-.4.2-.7.4-1,.7s-.5.6-.7,1c-.2.4-.4.8-.5,1.2-.1.4-.2.9-.3,1.3,0,.5,0,.9,0,1.3v2c0,.4,0,.9.1,1.3,0,.5.2.9.3,1.3.1.4.3.9.5,1.2.2.4.5.7.8,1,.3.3.7.5,1.1.7.4.2.9.3,1.4.3.3,0,.6,0,.9,0,.3,0,.6,0,1-.2.3,0,.6-.2.9-.4.3-.2.5-.4.7-.6v-3.8s-3.4,0-3.4,0v-1.8h5.5v6.3ZM477.6,499.6h-5.7l-1.4,4.4h-2.2l5.5-17.1h1.8l5.4,17.1h-2.2l-1.3-4.4ZM472.5,497.7h4.5l-2.2-7.4-2.3,7.4ZM497.3,498.9c-.1.8-.3,1.5-.6,2.2-.3.7-.7,1.2-1.2,1.7-.5.5-1.1.8-1.7,1.1-.7.3-1.4.4-2.2.4s-1.3,0-1.9-.3c-.6-.2-1.1-.5-1.5-.8-.5-.4-.8-.8-1.2-1.2-.3-.5-.6-1-.8-1.6-.2-.6-.4-1.2-.5-1.8-.1-.6-.2-1.2-.2-1.9v-2.4c0-.6,0-1.3.2-1.9.1-.6.3-1.2.5-1.8.2-.6.5-1.1.8-1.6.3-.5.7-.9,1.2-1.3.4-.4,1-.6,1.5-.8.6-.2,1.2-.3,1.9-.3s1.6.1,2.3.4c.7.3,1.2.6,1.7,1.1.5.5.9,1.1,1.2,1.7.3.7.5,1.4.6,2.2h-2.2c0-.5-.2-1-.4-1.4-.2-.4-.4-.8-.7-1.2-.3-.3-.6-.6-1.1-.8-.4-.2-.9-.3-1.5-.3s-1,0-1.4.3c-.4.2-.7.4-1,.7-.3.3-.5.6-.7,1-.2.4-.3.8-.5,1.2-.1.4-.2.9-.3,1.3,0,.4,0,.9,0,1.3v2.4c0,.4,0,.9,0,1.3,0,.4.1.9.3,1.3.1.4.3.8.5,1.2.2.4.4.7.7,1,.3.3.6.5,1,.7.4.2.8.2,1.4.2s1.1,0,1.5-.3c.4-.2.8-.4,1.1-.8.3-.3.5-.7.7-1.1.2-.4.3-.9.4-1.4h2.2ZM511.3,499.6h-5.7l-1.4,4.4h-2.2l5.5-17.1h1.8l5.4,17.1h-2.2l-1.3-4.4ZM506.1,497.7h4.5l-2.2-7.4-2.3,7.4ZM528.1,499.6h-5.7l-1.4,4.4h-2.2l5.5-17.1h1.8l5.4,17.1h-2.2l-1.3-4.4ZM523,497.7h4.5l-2.2-7.4-2.3,7.4ZM544.9,499.6h-5.7l-1.4,4.4h-2.2l5.5-17.1h1.8l5.4,17.1h-2.2l-1.3-4.4ZM539.8,497.7h4.5l-2.2-7.4-2.3,7.4ZM561.7,499.6h-5.7l-1.4,4.4h-2.2l5.5-17.1h1.8l5.4,17.1h-2.2l-1.3-4.4ZM556.6,497.7h4.5l-2.2-7.4-2.3,7.4ZM581.4,498.9c-.1.8-.3,1.5-.6,2.2-.3.7-.7,1.2-1.2,1.7-.5.5-1.1.8-1.7,1.1-.7.3-1.4.4-2.2.4s-1.3,0-1.9-.3c-.6-.2-1.1-.5-1.5-.8-.5-.4-.8-.8-1.2-1.2-.3-.5-.6-1-.8-1.6-.2-.6-.4-1.2-.5-1.8-.1-.6-.2-1.2-.2-1.9v-2.4c0-.6,0-1.3.2-1.9.1-.6.3-1.2.5-1.8.2-.6.5-1.1.8-1.6.3-.5.7-.9,1.2-1.3.4-.4,1-.6,1.5-.8.6-.2,1.2-.3,1.9-.3s1.6.1,2.3.4c.7.3,1.2.6,1.7,1.1.5.5.9,1.1,1.2,1.7.3.7.5,1.4.6,2.2h-2.2c0-.5-.2-1-.4-1.4-.2-.4-.4-.8-.7-1.2-.3-.3-.6-.6-1.1-.8-.4-.2-.9-.3-1.5-.3s-1,0-1.4.3c-.4.2-.7.4-1,.7-.3.3-.5.6-.7,1-.2.4-.3.8-.5,1.2-.1.4-.2.9-.3,1.3,0,.4,0,.9,0,1.3v2.4c0,.4,0,.9,0,1.3,0,.4.1.9.3,1.3.1.4.3.8.5,1.2.2.4.4.7.7,1,.3.3.6.5,1,.7.4.2.8.2,1.4.2s1.1,0,1.5-.3c.4-.2.8-.4,1.1-.8.3-.3.5-.7.7-1.1.2-.4.3-.9.4-1.4h2.2ZM598.2,498.9c-.1.8-.3,1.5-.6,2.2-.3.7-.7,1.2-1.2,1.7-.5.5-1.1.8-1.7,1.1-.7.3-1.4.4-2.2.4s-1.3,0-1.9-.3c-.6-.2-1.1-.5-1.5-.8-.5-.4-.8-.8-1.2-1.2-.3-.5-.6-1-.8-1.6-.2-.6-.4-1.2-.5-1.8-.1-.6-.2-1.2-.2-1.9v-2.4c0-.6,0-1.3.2-1.9.1-.6.3-1.2.5-1.8.2-.6.5-1.1.8-1.6.3-.5.7-.9,1.2-1.3.4-.4,1-.6,1.5-.8.6-.2,1.2-.3,1.9-.3s1.6.1,2.3.4c.7.3,1.2.6,1.7,1.1.5.5.9,1.1,1.2,1.7.3.7.5,1.4.6,2.2h-2.2c0-.5-.2-1-.4-1.4-.2-.4-.4-.8-.7-1.2s-.6-.6-1.1-.8c-.4-.2-.9-.3-1.5-.3s-1,0-1.4.3c-.4.2-.7.4-1,.7-.3.3-.5.6-.7,1-.2.4-.3.8-.5,1.2-.1.4-.2.9-.3,1.3,0,.4,0,.9,0,1.3v2.4c0,.4,0,.9,0,1.3,0,.4.1.9.3,1.3.1.4.3.8.5,1.2.2.4.4.7.7,1,.3.3.6.5,1,.7.4.2.8.2,1.4.2s1.1,0,1.5-.3c.4-.2.8-.4,1.1-.8.3-.3.5-.7.7-1.1.2-.4.3-.9.4-1.4h2.2ZM615.5,488.8h-5.3v15.2h-2.1v-15.2h-5.3v-1.9h12.7v1.9ZM629,499.6h-5.7l-1.4,4.4h-2.2l5.5-17.1h1.8l5.4,17.1h-2.2l-1.3-4.4ZM623.8,497.7h4.5l-2.2-7.4-2.3,7.4ZM649.1,488.8h-5.3v15.2h-2.1v-15.2h-5.3v-1.9h12.7v1.9ZM665.9,488.8h-5.3v15.2h-2.1v-15.2h-5.3v-1.9h12.7v1.9ZM682.8,488.8h-5.3v15.2h-2.1v-15.2h-5.3v-1.9h12.7v1.9ZM699.6,488.8h-5.3v15.2h-2.1v-15.2h-5.3v-1.9h12.7v1.9ZM716.4,488.8h-5.3v15.2h-2.1v-15.2h-5.3v-1.9h12.7v1.9ZM733.2,488.8h-5.3v15.2h-2.1v-15.2h-5.3v-1.9h12.7v1.9ZM750,488.8h-5.3v15.2h-2.1v-15.2h-5.3v-1.9h12.7v1.9ZM763.5,499.6h-5.7l-1.4,4.4h-2.2l5.5-17.1h1.8l5.4,17.1h-2.2l-1.3-4.4ZM758.4,497.7h4.5l-2.2-7.4-2.3,7.4ZM783.6,488.8h-5.3v15.2h-2.1v-15.2h-5.3v-1.9h12.7v1.9ZM800.5,488.8h-5.3v15.2h-2.1v-15.2h-5.3v-1.9h12.7v1.9ZM813.9,499.6h-5.7l-1.4,4.4h-2.2l5.5-17.1h1.8l5.4,17.1h-2.2l-1.3-4.4ZM808.8,497.7h4.5l-2.2-7.4-2.3,7.4ZM834.1,488.8h-5.3v15.2h-2.1v-15.2h-5.3v-1.9h12.7v1.9ZM847.5,499.6h-5.7l-1.4,4.4h-2.2l5.5-17.1h1.8l5.4,17.1h-2.2l-1.3-4.4ZM842.4,497.7h4.5l-2.2-7.4-2.3,7.4ZM867.3,498.9c-.1.8-.3,1.5-.6,2.2-.3.7-.7,1.2-1.2,1.7-.5.5-1.1.8-1.7,1.1-.7.3-1.4.4-2.2.4s-1.3,0-1.9-.3c-.6-.2-1.1-.5-1.5-.8-.5-.4-.8-.8-1.2-1.2-.3-.5-.6-1-.8-1.6-.2-.6-.4-1.2-.5-1.8-.1-.6-.2-1.2-.2-1.9v-2.4c0-.6,0-1.3.2-1.9.1-.6.3-1.2.5-1.8.2-.6.5-1.1.8-1.6.3-.5.7-.9,1.2-1.3.4-.4,1-.6,1.5-.8.6-.2,1.2-.3,1.9-.3s1.6.1,2.3.4c.7.3,1.2.6,1.7,1.1.5.5.9,1.1,1.2,1.7.3.7.5,1.4.6,2.2h-2.2c0-.5-.2-1-.4-1.4-.2-.4-.4-.8-.7-1.2s-.6-.6-1.1-.8c-.4-.2-.9-.3-1.5-.3s-1,0-1.4.3c-.4.2-.7.4-1,.7-.3.3-.5.6-.7,1-.2.4-.3.8-.5,1.2-.1.4-.2.9-.3,1.3,0,.4,0,.9,0,1.3v2.4c0,.4,0,.9,0,1.3,0,.4.1.9.3,1.3.1.4.3.8.5,1.2.2.4.4.7.7,1,.3.3.6.5,1,.7.4.2.8.2,1.4.2s1.1,0,1.5-.3c.4-.2.8-.4,1.1-.8.3-.3.5-.7.7-1.1.2-.4.3-.9.4-1.4h2.2ZM884.5,488.8h-5.3v15.2h-2.1v-15.2h-5.3v-1.9h12.7v1.9ZM898,499.6h-5.7l-1.4,4.4h-2.2l5.5-17.1h1.8l5.4,17.1h-2.2l-1.3-4.4ZM892.9,497.7h4.5l-2.2-7.4-2.3,7.4ZM917.7,501.8c-.3.3-.5.6-.8.9-.3.2-.6.5-.9.7-.5.3-1.1.6-1.8.7-.6.2-1.3.2-2,.2-.7,0-1.4-.1-1.9-.3-.6-.2-1.1-.5-1.6-.9-.5-.4-.9-.8-1.2-1.3-.4-.5-.6-1-.9-1.6-.2-.6-.4-1.2-.6-1.8-.1-.6-.2-1.3-.2-1.9v-2c0-.6,0-1.3.2-1.9.1-.6.3-1.2.5-1.8.2-.6.5-1.1.8-1.6.3-.5.7-.9,1.2-1.3.5-.4,1-.6,1.5-.9.6-.2,1.2-.3,1.9-.3s1.5.1,2.2.4c.7.2,1.3.6,1.8,1,.5.5.9,1,1.2,1.7.3.6.5,1.4.6,2.2h-2.1c0-.5-.2-.9-.4-1.4-.2-.4-.4-.8-.7-1.1-.3-.3-.6-.5-1.1-.7-.4-.2-.9-.3-1.4-.3s-1,0-1.4.3c-.4.2-.7.4-1,.7-.3.3-.5.6-.7,1-.2.4-.4.8-.5,1.2-.1.4-.2.9-.3,1.3,0,.5,0,.9,0,1.3v2c0,.4,0,.9.1,1.3,0,.5.2.9.3,1.3.1.4.3.9.5,1.2.2.4.5.7.8,1,.3.3.7.5,1.1.7.4.2.9.3,1.4.3.3,0,.6,0,.9,0,.3,0,.6,0,.9-.2.3,0,.6-.2.9-.4.3-.2.5-.4.7-.6v-3.8s-3.4,0-3.4,0v-1.8h5.5v6.3Z"/>
      <path class="cls-4" d="M452.5,558.4h-9v-1.8h9v1.8ZM462.4,555.4h1.5c.5,0,1,0,1.4-.2.4-.1.8-.4,1.1-.6.3-.3.5-.6.6-.9.1-.4.2-.8.2-1.2s0-.9-.2-1.3c-.1-.4-.3-.7-.6-.9-.2-.2-.6-.4-.9-.5-.4-.1-.8-.2-1.3-.2s-.9,0-1.3.2c-.4.1-.7.3-1,.6-.3.3-.5.6-.6.9-.1.4-.2.8-.2,1.2h-2.2c0-.6.1-1.3.4-1.8.3-.6.6-1.1,1.1-1.5.5-.4,1-.8,1.7-1,.6-.2,1.4-.4,2.2-.4s1.5.1,2.1.3c.6.2,1.2.5,1.6.9.5.4.8.9,1.1,1.5.2.6.4,1.3.4,2.1s0,.7-.2,1c-.1.4-.3.7-.5,1-.2.3-.5.7-.8,1-.3.3-.7.5-1.2.7.6.2,1,.4,1.4.7.4.3.7.6.9,1,.2.4.4.7.5,1.1,0,.4.1.8.1,1.2,0,.8-.1,1.5-.4,2.1-.3.6-.7,1.1-1.1,1.6-.5.4-1.1.8-1.7,1-.7.2-1.4.3-2.1.3s-1.5-.1-2.1-.3c-.7-.2-1.2-.5-1.7-.9-.5-.4-.9-.9-1.2-1.5-.3-.6-.4-1.3-.4-2h2.2c0,.4,0,.9.2,1.2.2.4.4.7.7.9.3.3.6.5,1,.6.4.1.9.2,1.3.2s.9,0,1.3-.2c.4-.1.7-.3,1-.6.3-.3.5-.6.6-1,.2-.4.2-.9.2-1.4s0-1-.3-1.4c-.2-.4-.4-.7-.7-1-.3-.3-.7-.4-1.2-.6-.4-.1-.9-.2-1.5-.2h-1.5v-1.8ZM477.4,556.4l.9-8.5h8.8v2.1h-6.9l-.5,4.5c.3-.2.7-.4,1.2-.5.5-.1,1-.2,1.6-.2s1.5.1,2.1.4c.6.3,1.2.7,1.6,1.1.4.5.8,1.1,1,1.8.2.7.4,1.5.4,2.3s-.1,1.6-.3,2.3c-.2.7-.5,1.3-1,1.8-.4.5-1,.9-1.7,1.2-.7.3-1.5.4-2.4.4s-1.4,0-2-.3c-.6-.2-1.2-.5-1.6-.9-.5-.4-.9-.9-1.2-1.5-.3-.6-.5-1.3-.6-2.1h2.1c.1,1,.5,1.7,1.1,2.2.6.5,1.3.8,2.2.8s1,0,1.4-.3c.4-.2.7-.5,1-.8.3-.3.5-.7.6-1.2.1-.5.2-1,.2-1.6s0-1-.2-1.5c-.1-.5-.4-.9-.7-1.2-.3-.3-.6-.6-1.1-.8-.4-.2-.9-.3-1.5-.3s-.7,0-.9,0c-.3,0-.5.1-.7.2s-.4.2-.6.3c-.2.1-.4.3-.6.5l-1.7-.4Z"/>
      <path class="cls-9" d="M611.5,561.6c0-.3,0-.5-.2-.7-.1-.2-.3-.4-.5-.6-.2-.2-.6-.3-1-.5-.4-.1-.9-.3-1.5-.4-.7-.1-1.4-.3-2-.5-.6-.2-1.1-.5-1.5-.8-.4-.3-.8-.6-1-1-.2-.4-.4-.9-.4-1.4s.1-1,.4-1.4c.2-.5.6-.8,1-1.2.4-.3,1-.6,1.6-.8.6-.2,1.3-.3,2-.3s1.5.1,2.1.3,1.2.5,1.6.8c.4.4.8.8,1,1.3.2.5.4,1,.4,1.5h-2.2c0-.3,0-.5-.2-.8-.1-.3-.3-.5-.6-.7s-.6-.4-.9-.5c-.4-.1-.8-.2-1.2-.2s-.9,0-1.2.2c-.3.1-.6.2-.9.4-.2.2-.4.4-.5.6-.1.2-.2.5-.2.7s0,.5.1.7c0,.2.3.4.5.5.2.2.5.3.9.4.4.1.9.2,1.5.4.8.2,1.5.4,2.1.6.6.2,1.1.5,1.6.8.4.3.7.7,1,1.1.2.4.3.9.3,1.4s-.1,1.1-.4,1.5c-.2.5-.6.9-1.1,1.2-.5.3-1,.6-1.6.8-.6.2-1.3.3-2.1.3s-1.6-.1-2.3-.3c-.7-.2-1.2-.5-1.7-.9-.5-.4-.8-.8-1.1-1.3-.2-.5-.4-1-.4-1.6h2.2c0,.4.1.8.4,1.1.2.3.5.5.8.7.3.2.6.3,1,.4.4,0,.7.1,1.1.1.6,0,1.1,0,1.5-.2.4-.1.8-.3,1-.6s.3-.3.3-.5.1-.4.1-.6ZM619.8,569.9v-17.6h2v1.4c.3-.2.5-.4.7-.6.2-.2.4-.3.7-.5.3-.2.7-.3,1.1-.4.4-.1.8-.2,1.3-.2.8,0,1.5.2,2.2.5.6.3,1.1.8,1.6,1.3.4.6.7,1.3,1,2.1.2.8.3,1.7.3,2.6v.2c0,.9-.1,1.8-.3,2.5-.2.8-.5,1.5-1,2s-.9,1-1.6,1.4c-.6.3-1.3.5-2.1.5s-.9,0-1.4-.2c-.4-.1-.8-.2-1.1-.4-.2-.1-.4-.2-.6-.4-.2-.1-.3-.3-.5-.5v6.1h-2.2ZM628.4,558.6c0-.6,0-1.2-.2-1.8-.1-.6-.3-1.1-.6-1.5-.3-.4-.7-.8-1.1-1-.4-.2-1-.4-1.6-.4s-.6,0-.9.1c-.3,0-.5.2-.8.3-.2.1-.5.3-.7.6-.2.2-.4.5-.5.7v6.1c.1.2.3.5.5.7.2.2.4.4.6.5.2.2.5.3.8.4.3,0,.7.1,1,.1.6,0,1.1-.1,1.6-.4.4-.3.8-.6,1.1-1,.3-.4.5-.9.6-1.5.1-.6.2-1.2.2-1.8v-.2ZM645,565c0-.2-.2-.4-.2-.6,0-.2,0-.5-.1-.8-.2.2-.5.4-.7.6-.3.2-.6.4-.9.5-.3.1-.7.3-1,.4-.4,0-.8.1-1.2.1-.7,0-1.3,0-1.8-.3-.5-.2-1-.5-1.4-.8-.4-.3-.7-.7-.9-1.2-.2-.5-.3-1-.3-1.5s.1-1.3.4-1.8c.3-.5.7-1,1.2-1.3.5-.3,1.1-.6,1.8-.8.7-.2,1.5-.3,2.4-.3h2.4v-1c0-.4,0-.7-.2-1-.1-.3-.3-.6-.6-.8-.3-.2-.6-.4-.9-.5-.4-.1-.8-.2-1.2-.2s-.8,0-1.2.2c-.3.1-.6.3-.9.4-.2.2-.4.4-.6.6-.1.2-.2.5-.2.8h-2.2c0-.5.1-.9.4-1.4.2-.4.6-.8,1-1.2.4-.4,1-.6,1.6-.9.6-.2,1.3-.3,2.1-.3s1.4,0,2,.3c.6.2,1.2.4,1.6.8.4.4.8.8,1.1,1.3.3.5.4,1.2.4,1.9v5.9c0,.4,0,.9.1,1.3,0,.5.2.9.3,1.2v.2h-2.3ZM641.2,563.3c.4,0,.8,0,1.2-.2.4-.1.7-.3,1-.4.3-.2.6-.4.8-.6.2-.2.4-.5.5-.7v-2.6h-2c-.8,0-1.4,0-2,.2-.6.1-1,.3-1.3.6-.2.2-.4.4-.5.7-.1.3-.2.6-.2.9s0,.6.2.9c.1.3.3.5.5.7.2.2.5.3.8.5.3.1.7.2,1.1.2ZM658.9,563.5c.4,0,.8,0,1.1-.2.4-.1.7-.3,1-.5.3-.2.5-.5.7-.8.2-.3.3-.6.3-1h2.1c0,.6-.2,1.1-.4,1.6-.3.5-.7,1-1.1,1.3-.5.4-1,.7-1.6.9-.6.2-1.3.3-1.9.3-1,0-1.8-.2-2.5-.5-.7-.3-1.3-.8-1.8-1.4-.5-.6-.8-1.2-1.1-2-.2-.8-.4-1.6-.4-2.4v-.5c0-.8.1-1.6.4-2.4.2-.8.6-1.4,1.1-2,.5-.6,1.1-1,1.8-1.4.7-.3,1.6-.5,2.5-.5s1.4.1,2.1.4c.6.2,1.2.6,1.6,1,.5.4.8.9,1.1,1.5s.4,1.2.4,1.8h-2.1c0-.4,0-.7-.3-1.1-.2-.3-.4-.6-.6-.9-.3-.3-.6-.5-1-.6-.4-.1-.8-.2-1.2-.2-.7,0-1.2.1-1.7.4-.5.3-.8.6-1.1,1-.3.4-.5.9-.6,1.5-.1.5-.2,1.1-.2,1.6v.5c0,.6,0,1.1.2,1.7.1.5.3,1,.6,1.5.3.4.6.8,1.1,1.1.5.3,1,.4,1.7.4ZM675.9,565.2c-.9,0-1.7-.2-2.5-.5-.7-.3-1.4-.7-1.9-1.3s-.9-1.2-1.2-1.9c-.3-.8-.4-1.6-.4-2.5v-.5c0-1,.2-1.9.5-2.7.3-.8.8-1.5,1.3-2.1.5-.6,1.2-1,1.8-1.3.7-.3,1.4-.4,2.1-.4s1.7.2,2.4.5c.7.3,1.3.7,1.7,1.3.5.6.8,1.2,1,2,.2.8.3,1.6.3,2.5v1h-9.1c0,.7.2,1.2.4,1.7.2.5.5.9.8,1.2.3.4.8.7,1.2.9.5.2,1,.3,1.6.3s1.5-.2,2.1-.5c.6-.3,1.1-.7,1.5-1.2l1.3,1c-.4.6-1.1,1.2-1.9,1.7-.8.5-1.9.7-3.1.7ZM675.6,553.9c-.4,0-.9,0-1.2.2-.4.2-.7.4-1.1.7-.3.3-.6.7-.8,1.1-.2.4-.4,1-.4,1.5h6.8c0-.5,0-.9-.2-1.4-.1-.5-.4-.8-.6-1.2s-.6-.6-1-.8c-.4-.2-.9-.3-1.4-.3ZM695.4,552.1c.4,0,.8,0,1.2,0,.4,0,.8.1,1,.2l-.3,2.1c-.4,0-.8-.2-1.2-.2-.4,0-.8,0-1.2,0s-1,0-1.4.2c-.4.1-.8.3-1.1.6-.3.2-.5.5-.8.8-.2.3-.4.7-.5,1.1v8.1h-2.2v-12.7h2.1v1.7c0,0,.1.3.1.3.5-.7,1.1-1.2,1.9-1.6.7-.4,1.6-.6,2.5-.6ZM605.2,590.1c0-1.1,0-2.2.3-3.2.2-1,.4-1.9.7-2.7.3-.8.6-1.6,1-2.3.4-.7.8-1.3,1.2-1.9.4-.5.8-1,1.3-1.4.4-.4.8-.7,1.2-.9l.5,1.4c-.2.2-.5.4-.8.7-.2.3-.5.6-.7.9-.4.5-.7,1.1-1,1.8-.3.7-.6,1.4-.8,2.2-.2.7-.4,1.5-.5,2.4-.1.9-.2,1.8-.2,2.8v.2c0,1,0,1.9.2,2.7.1.9.3,1.6.4,2.4.2.7.4,1.4.7,2,.3.6.5,1.2.8,1.7.3.5.6.9.9,1.2.3.4.6.7,1,.9l-.5,1.3c-.4-.2-.8-.5-1.2-.9-.4-.4-.9-.8-1.3-1.4-.4-.5-.8-1.2-1.2-1.9-.4-.7-.7-1.5-1-2.3-.3-.8-.5-1.7-.7-2.7-.2-1-.3-2-.3-3.2h0ZM626.9,597h-2.2v-14.3l-4.5,1.7v-2l6.5-2.5h.2v17.1ZM644.7,579.9v1.9h-.2c-1,0-1.9.1-2.6.4-.7.3-1.3.7-1.8,1.2-.5.5-.9,1.1-1.1,1.8-.2.7-.4,1.4-.4,2.2.2-.2.4-.5.7-.7.3-.2.6-.4.9-.6.3-.1.6-.3,1-.4.4,0,.7-.1,1.1-.1.9,0,1.6.2,2.2.5.6.3,1.1.7,1.5,1.3.4.5.7,1.1.9,1.8.2.7.3,1.4.3,2.1s-.1,1.5-.3,2.2c-.2.7-.6,1.3-1,1.8-.4.5-1,1-1.7,1.3-.7.3-1.4.5-2.3.5s-1.6-.2-2.3-.5c-.7-.4-1.2-.8-1.7-1.4-.5-.6-.9-1.3-1.1-2.2-.2-.8-.4-1.7-.4-2.5v-1c0-1.4.2-2.8.5-4.2s1-2.5,2-3.5c.7-.7,1.5-1.2,2.4-1.5,1-.3,2.1-.5,3.3-.5h.2ZM641.8,587.6c-.4,0-.7,0-1.1.2s-.7.3-1,.5-.6.5-.8.8c-.2.3-.4.6-.5,1v.7c0,.8,0,1.4.3,2,.2.6.4,1.1.7,1.5.3.4.7.7,1.1.9.4.2.8.3,1.3.3s1,0,1.3-.3c.4-.2.7-.5,1-.8.3-.3.5-.8.6-1.2.1-.5.2-1,.2-1.6s0-1-.2-1.5c-.1-.5-.3-.9-.6-1.3-.3-.4-.6-.7-1-.9-.4-.2-.8-.3-1.4-.3ZM664.2,590.8c0,.6,0,1.1-.1,1.6,0,.5-.2,1-.4,1.4-.2.6-.5,1.1-.8,1.6-.3.5-.7.8-1.2,1.1-.3.2-.7.4-1.1.5-.4.1-.8.2-1.3.2s-1,0-1.5-.2c-.4-.1-.8-.3-1.2-.6-.2-.1-.3-.3-.5-.4-.2-.1-.3-.3-.4-.5v1.4h-2.1v-18h2.2v6.7c.2-.2.4-.4.6-.6.2-.2.5-.3.7-.5.3-.2.7-.3,1-.4s.8-.1,1.2-.1,1.1,0,1.5.2c.5.1.9.4,1.3.6.3.2.6.6.9.9.3.4.5.7.7,1.2.2.5.4,1,.5,1.6.1.6.2,1.2.2,1.9v.2ZM662.1,590.6c0-.4,0-.8,0-1.2,0-.4-.1-.7-.2-1.1-.1-.4-.3-.8-.6-1.1-.2-.3-.5-.6-.8-.8-.2-.1-.5-.2-.8-.3-.3,0-.6-.1-.9-.1s-.7,0-1,.2c-.3,0-.6.2-.8.4-.2.2-.5.4-.7.6-.2.2-.3.5-.5.8v5.5c.1.3.3.5.5.8.2.2.4.4.7.6.2.2.5.3.8.4.3,0,.7.1,1,.1s.7,0,1-.1c.3,0,.6-.2.8-.4.3-.2.6-.5.8-.8.2-.3.4-.7.5-1.1.1-.3.2-.6.2-1,0-.4,0-.7,0-1.1v-.2ZM670.3,601.9v-17.6h2v1.4c.3-.2.5-.4.7-.6.2-.2.4-.3.7-.5.3-.2.7-.3,1.1-.4.4-.1.8-.2,1.3-.2.8,0,1.5.2,2.2.5.6.3,1.1.8,1.6,1.3.4.6.7,1.3,1,2.1.2.8.3,1.7.3,2.6v.2c0,.9-.1,1.8-.3,2.5-.2.8-.5,1.5-1,2-.4.6-.9,1-1.6,1.4-.6.3-1.3.5-2.1.5s-.9,0-1.4-.2c-.4-.1-.8-.2-1.1-.4-.2-.1-.4-.2-.6-.4-.2-.1-.3-.3-.5-.5v6.1h-2.2ZM678.8,590.6c0-.6,0-1.2-.2-1.8-.1-.6-.3-1.1-.6-1.5-.3-.4-.7-.8-1.1-1-.4-.2-1-.4-1.6-.4s-.6,0-.9.1c-.3,0-.5.2-.8.3-.2.1-.5.3-.7.6-.2.2-.4.5-.5.7v6.1c.1.2.3.5.5.7.2.2.4.4.6.5.2.2.5.3.8.4.3,0,.7.1,1,.1.6,0,1.1-.1,1.6-.4.4-.3.8-.6,1.1-1,.3-.4.5-.9.6-1.5.1-.6.2-1.2.2-1.8v-.2ZM695,590.2c0,1.1,0,2.2-.3,3.2-.2,1-.4,1.9-.7,2.7-.3.8-.6,1.6-1,2.3-.4.7-.8,1.3-1.2,1.9-.4.5-.9,1-1.3,1.4-.4.4-.8.7-1.2.9l-.5-1.3c.3-.2.7-.6,1-.9.3-.4.7-.8,1-1.3.3-.5.6-1.1.8-1.7.3-.6.5-1.3.7-2.1.2-.7.3-1.5.4-2.3.1-.8.2-1.7.2-2.6v-.2c0-1.1,0-2-.2-2.9-.1-.9-.3-1.6-.4-2.2-.2-.9-.5-1.6-.8-2.3-.3-.7-.6-1.3-1-1.8-.3-.4-.5-.7-.8-1-.3-.3-.5-.6-.8-.8l.5-1.3c.4.2.8.5,1.2.9.4.4.9.8,1.3,1.4.4.6.8,1.2,1.2,1.9.4.7.7,1.4,1,2.3.3.8.5,1.7.7,2.7.2,1,.3,2,.3,3.2h0Z"/>
      <path class="cls-7" d="M823.5,558.4h-9v-1.8h9v1.8ZM837.9,565h-2.2v-14.3l-4.5,1.7v-2l6.5-2.5h.2v17.1ZM858.4,558.5c0,1.1-.1,2-.4,2.9-.2.8-.6,1.5-1.1,2.1-.5.6-1,1-1.7,1.3-.7.3-1.5.4-2.3.4s-1.6-.1-2.3-.4c-.7-.3-1.3-.7-1.7-1.3-.5-.6-.8-1.3-1.1-2.1-.2-.8-.4-1.8-.4-2.9v-4c0-1.1.1-2,.4-2.9.2-.8.6-1.6,1.1-2.1.5-.6,1-1,1.7-1.3.7-.3,1.5-.5,2.3-.5s1.7.2,2.3.5c.7.3,1.3.7,1.7,1.3.5.6.8,1.3,1.1,2.1.2.8.4,1.8.4,2.9v4ZM849.5,558l6.6-5.1c0-.6-.2-1.1-.3-1.5-.2-.4-.4-.8-.6-1.1-.3-.3-.6-.5-1-.7-.4-.1-.8-.2-1.3-.2s-1,0-1.4.2c-.4.2-.7.4-1,.7-.3.4-.6.9-.7,1.5-.2.6-.2,1.3-.2,2.1v4ZM856.2,558.9v-3.9l-6.6,5.1c0,.6.2,1.1.4,1.5.2.4.4.8.7,1.1.3.3.6.5,1,.6.4.1.8.2,1.3.2s.9,0,1.3-.2c.4-.1.7-.4,1-.6.4-.4.6-.9.8-1.5.2-.6.3-1.3.3-2.2Z"/>
      <path class="cls-2" d="M961.1,373.8c-.3.3-.5.6-.8.9-.3.2-.6.5-.9.7-.5.3-1.1.6-1.8.7-.6.2-1.3.2-2,.2-.7,0-1.4-.1-1.9-.3-.6-.2-1.1-.5-1.6-.9-.5-.4-.9-.8-1.2-1.3-.4-.5-.6-1-.9-1.6-.2-.6-.4-1.2-.6-1.8-.1-.6-.2-1.3-.2-1.9v-2c0-.6,0-1.3.2-1.9.1-.6.3-1.2.5-1.8s.5-1.1.8-1.6c.3-.5.7-.9,1.2-1.3.5-.4,1-.6,1.5-.9.6-.2,1.2-.3,1.9-.3s1.5.1,2.2.4c.7.2,1.3.6,1.8,1,.5.5.9,1,1.2,1.7.3.6.5,1.4.6,2.2h-2.1c0-.5-.2-.9-.4-1.4-.2-.4-.4-.8-.7-1.1-.3-.3-.6-.5-1.1-.7-.4-.2-.9-.3-1.4-.3s-1,0-1.4.3c-.4.2-.7.4-1,.7s-.5.6-.7,1c-.2.4-.4.8-.5,1.2-.1.4-.2.9-.3,1.3,0,.5,0,.9,0,1.3v2c0,.4,0,.9.1,1.3,0,.5.2.9.3,1.3.1.4.3.9.5,1.2.2.4.5.7.8,1,.3.3.7.5,1.1.7.4.2.9.3,1.4.3.3,0,.6,0,.9,0,.3,0,.6,0,1-.2.3,0,.6-.2.9-.4.3-.2.5-.4.7-.6v-3.8s-3.4,0-3.4,0v-1.8h5.5v6.3ZM972.5,376.2c-.9,0-1.7-.2-2.5-.5-.7-.3-1.4-.7-1.9-1.3-.5-.5-.9-1.2-1.2-1.9-.3-.8-.4-1.6-.4-2.4v-.5c0-1,.2-1.9.5-2.7.3-.8.8-1.5,1.3-2.1.5-.6,1.2-1,1.8-1.3.7-.3,1.4-.4,2.1-.4s1.7.2,2.4.5c.7.3,1.3.7,1.7,1.3.5.6.8,1.2,1,2,.2.8.3,1.6.3,2.5v1h-9.1c0,.7.2,1.2.4,1.7.2.5.5.9.8,1.2.3.4.8.7,1.2.9.5.2,1,.3,1.6.3s1.5-.2,2.1-.5c.6-.3,1.1-.7,1.5-1.2l1.3,1c-.4.6-1.1,1.2-1.9,1.7-.8.5-1.9.7-3.1.7ZM972.2,364.9c-.4,0-.9,0-1.2.2-.4.2-.7.4-1.1.7-.3.3-.6.7-.8,1.1-.2.4-.4,1-.4,1.5h6.8c0-.5,0-.9-.2-1.4-.1-.5-.4-.8-.6-1.2-.3-.3-.6-.6-1-.8-.4-.2-.9-.3-1.4-.3ZM983.7,376v-12.7h1.9l.2,1.9c.2-.3.4-.5.6-.7s.5-.4.7-.6c.4-.2.8-.4,1.2-.6.4-.1.9-.2,1.4-.2.7,0,1.3,0,1.8.3.5.2,1,.5,1.4.9.4.4.7.9.9,1.5.2.6.3,1.3.3,2.2v8.1h-2.2v-8c0-.6,0-1-.2-1.4-.1-.4-.3-.7-.6-.9-.2-.2-.6-.4-.9-.5-.4-.1-.8-.2-1.2-.2s-.8,0-1.1.2c-.3.1-.7.3-.9.5-.2.2-.5.4-.7.6-.2.2-.4.5-.5.8v9.1h-2.2ZM1006.1,376.2c-.9,0-1.7-.2-2.5-.5-.7-.3-1.4-.7-1.9-1.3-.5-.5-.9-1.2-1.2-1.9-.3-.8-.4-1.6-.4-2.4v-.5c0-1,.2-1.9.5-2.7.3-.8.8-1.5,1.3-2.1.5-.6,1.1-1,1.8-1.3s1.4-.4,2.1-.4,1.7.2,2.4.5c.7.3,1.3.7,1.7,1.3.5.6.8,1.2,1,2,.2.8.3,1.6.3,2.5v1h-9.1c0,.7.2,1.2.4,1.7s.5.9.8,1.2c.4.4.8.7,1.2.9.5.2,1,.3,1.6.3s1.5-.2,2.1-.5c.6-.3,1.1-.7,1.5-1.2l1.3,1c-.4.6-1.1,1.2-1.9,1.7-.8.5-1.9.7-3.1.7ZM1005.8,364.9c-.4,0-.8,0-1.2.2-.4.2-.7.4-1.1.7-.3.3-.6.7-.8,1.1-.2.4-.4,1-.5,1.5h6.8c0-.5,0-.9-.2-1.4-.1-.5-.4-.8-.6-1.2-.3-.3-.6-.6-1-.8-.4-.2-.9-.3-1.4-.3ZM1022.4,360.2v3.1h4.8v1.7h-4.8v6.9c0,.5,0,.9.2,1.2.1.3.3.6.5.8.2.2.5.3.8.4.3,0,.6.1.9.1s.5,0,.7,0c.2,0,.5,0,.7-.1.2,0,.4,0,.7-.1.2,0,.4,0,.5-.1l.3,1.5c-.2.1-.4.2-.7.3-.3,0-.5.1-.8.2-.3,0-.6.1-1,.1-.3,0-.7,0-1,0-.6,0-1.1,0-1.6-.2-.5-.2-.9-.4-1.3-.8-.4-.3-.6-.8-.9-1.3-.2-.6-.3-1.2-.3-2v-6.9h-3.3v-1.7h3.3v-3.1h2.2ZM1034.4,363.3h6.5v10.8h4.1v1.9h-10.6v-1.9h4.3v-8.9h-4.3v-1.9ZM1038.5,360c0-.2,0-.4,0-.5,0-.2.2-.3.3-.4.1-.1.2-.2.4-.2.2,0,.3,0,.6,0s.4,0,.5,0c.2,0,.3.1.4.2.1.1.2.2.3.4,0,.2,0,.3,0,.5,0,.4-.1.6-.3.9-.2.2-.5.4-1,.4s-.8-.1-1-.4c-.2-.2-.3-.5-.3-.9ZM1056.3,374.5c.4,0,.8,0,1.1-.2.4-.1.7-.3,1-.5.3-.2.5-.5.7-.8.2-.3.3-.6.3-1h2c0,.6-.2,1.1-.4,1.6-.3.5-.7,1-1.1,1.3-.5.4-1,.7-1.6.9-.6.2-1.3.3-1.9.3-1,0-1.8-.2-2.5-.5-.7-.3-1.3-.8-1.8-1.4-.5-.6-.8-1.2-1.1-2-.2-.8-.4-1.6-.4-2.4v-.5c0-.8.1-1.6.4-2.4.2-.8.6-1.4,1.1-2,.5-.6,1.1-1,1.8-1.4.7-.3,1.5-.5,2.5-.5s1.4.1,2.1.4c.6.2,1.2.6,1.6,1,.4.4.8.9,1.1,1.5.2.6.4,1.2.4,1.8h-2c0-.4,0-.7-.3-1.1-.2-.3-.4-.6-.6-.9s-.6-.5-1-.6c-.4-.1-.8-.2-1.2-.2-.7,0-1.2.1-1.7.4-.5.3-.8.6-1.1,1-.3.4-.5.9-.6,1.5s-.2,1.1-.2,1.6v.5c0,.6,0,1.1.2,1.7.1.5.3,1,.6,1.5.3.4.6.8,1.1,1.1.5.3,1,.4,1.7.4ZM1092.7,371.6h-5.7l-1.4,4.4h-2.2l5.5-17.1h1.8l5.4,17.1h-2.2l-1.3-4.4ZM1087.6,369.7h4.5l-2.2-7.4-2.3,7.4ZM1101.7,358h6.5v16.1h4.1v1.9h-10.6v-1.9h4.3v-14.2h-4.3v-1.9ZM1117.8,369.6c0-.9.1-1.8.3-2.6.2-.8.6-1.5,1-2.1.4-.6,1-1,1.6-1.3.6-.3,1.3-.5,2.1-.5s1,0,1.4.2c.4.1.8.3,1.2.5.2.1.4.3.5.4.2.2.3.3.5.5v-1.4h2.1v12.4c0,.8-.1,1.6-.4,2.2-.3.6-.6,1.2-1.1,1.7s-1,.8-1.7,1c-.7.2-1.4.4-2.2.4s-.7,0-1.1-.1c-.4,0-.8-.2-1.3-.4-.4-.2-.9-.4-1.3-.7-.4-.3-.8-.6-1-1l1.1-1.3c.3.3.5.6.8.8.3.2.6.4.8.5.3.1.6.2.9.3.3,0,.6,0,.9,0,.5,0,1,0,1.4-.2.4-.1.8-.4,1.1-.7.3-.3.5-.6.7-1.1.2-.4.2-.9.2-1.5v-1.1c-.2.2-.3.4-.5.5-.2.2-.4.3-.6.4-.3.2-.7.3-1.1.4-.4.1-.8.2-1.3.2-.8,0-1.5-.2-2.1-.5-.6-.3-1.2-.8-1.6-1.4-.4-.6-.8-1.3-1-2-.2-.8-.3-1.6-.3-2.5v-.2ZM1119.9,369.8c0,.6,0,1.2.2,1.8.1.6.3,1,.6,1.5.3.4.6.8,1.1,1,.4.2.9.4,1.5.4s.7,0,1-.1c.3,0,.6-.2.8-.4.2-.2.4-.4.6-.6.2-.2.4-.5.5-.8v-5.8c-.1-.3-.3-.5-.5-.7-.2-.2-.4-.4-.6-.6-.2-.2-.5-.3-.8-.4-.3,0-.6-.1-1-.1-.6,0-1.1.1-1.6.4-.4.2-.8.6-1.1,1-.3.4-.5.9-.6,1.5-.1.6-.2,1.1-.2,1.8v.2ZM1134.4,369.5c0-.9.1-1.8.4-2.5.3-.8.7-1.5,1.2-2.1.5-.6,1.1-1,1.8-1.4.7-.3,1.5-.5,2.4-.5s1.7.2,2.4.5c.7.3,1.3.8,1.8,1.4.5.6.9,1.3,1.1,2.1.3.8.4,1.6.4,2.5v.3c0,.9-.1,1.8-.4,2.5-.3.8-.7,1.5-1.1,2-.5.6-1.1,1-1.8,1.4-.7.3-1.5.5-2.4.5s-1.7-.2-2.4-.5c-.7-.3-1.3-.8-1.8-1.4-.5-.6-.9-1.3-1.2-2-.3-.8-.4-1.6-.4-2.5v-.3ZM1136.6,369.8c0,.6,0,1.2.2,1.8.2.6.4,1.1.7,1.5.3.4.7.8,1.1,1,.5.2,1,.4,1.6.4s1.1-.1,1.6-.4c.5-.2.8-.6,1.1-1,.3-.4.5-.9.7-1.5.2-.6.2-1.2.2-1.8v-.3c0-.6,0-1.2-.2-1.8-.2-.6-.4-1.1-.7-1.5-.3-.4-.7-.8-1.1-1-.4-.3-1-.4-1.6-.4s-1.1.1-1.6.4c-.4.2-.8.6-1.1,1-.3.4-.5.9-.7,1.5-.1.6-.2,1.2-.2,1.8v.3ZM1160.1,363.1c.4,0,.8,0,1.2,0,.4,0,.8.1,1,.2l-.3,2.1c-.4,0-.8-.2-1.2-.2-.4,0-.8,0-1.2,0s-1,0-1.4.2c-.4.1-.8.3-1.1.6-.3.2-.5.5-.8.8-.2.3-.4.7-.5,1.1v8.1h-2.2v-12.7h2.1v1.7c0,0,.1.3.1.3.5-.7,1.1-1.2,1.8-1.6.7-.4,1.5-.6,2.5-.6ZM1169,363.3h6.5v10.8h4.1v1.9h-10.6v-1.9h4.3v-8.9h-4.3v-1.9ZM1173,360c0-.2,0-.4,0-.5,0-.2.2-.3.3-.4,0-.1.2-.2.4-.2.2,0,.3,0,.6,0s.4,0,.5,0c.2,0,.3.1.4.2.1.1.2.2.3.4s0,.3,0,.5c0,.4,0,.6-.3.9s-.6.4-1,.4-.8-.1-1-.4c-.2-.2-.3-.5-.3-.9ZM1190.6,360.2v3.1h4.8v1.7h-4.8v6.9c0,.5,0,.9.2,1.2.1.3.3.6.5.8.2.2.5.3.8.4.3,0,.6.1.9.1s.5,0,.7,0c.2,0,.5,0,.7-.1s.4,0,.7-.1c.2,0,.4,0,.5-.1l.3,1.5c-.2.1-.4.2-.7.3-.3,0-.5.1-.8.2-.3,0-.6.1-1,.1-.3,0-.7,0-1,0-.6,0-1.1,0-1.6-.2-.5-.2-.9-.4-1.3-.8-.4-.3-.7-.8-.9-1.3-.2-.6-.3-1.2-.3-2v-6.9h-3.3v-1.7h3.3v-3.1h2.2ZM1204.4,365.2c.2-.3.4-.5.6-.7.2-.2.4-.4.7-.6.4-.3.8-.5,1.2-.6.4-.1.9-.2,1.4-.2.7,0,1.3,0,1.8.3.5.2,1,.5,1.4.9.4.4.7.9.9,1.5.2.6.3,1.4.3,2.2v8h-2.2v-8c0-.5,0-.9-.2-1.3-.1-.4-.3-.7-.5-.9-.2-.3-.6-.5-.9-.6-.4-.1-.8-.2-1.3-.2-.4,0-.8,0-1.1.2-.3.1-.7.3-1,.5-.2.2-.4.3-.7.6-.2.2-.4.4-.5.7v9.2h-2.2v-18h2.2v7.2ZM1220.1,363.3v1.2c.3-.4.6-.8,1.1-1s.9-.4,1.5-.4c.3,0,.6,0,.9.1.3,0,.5.2.7.3.2.1.3.2.4.4s.2.3.3.5c.1-.2.2-.3.4-.5.2-.2.3-.3.5-.4.2-.1.5-.2.7-.3.3,0,.6-.1.9-.1.4,0,.8,0,1.2.2.3.1.7.3.9.6.3.3.5.6.6,1.1.1.4.2,1,.2,1.6v9.5h-2.1v-9.5c0-.3,0-.5-.1-.7,0-.2-.1-.4-.3-.5-.1-.1-.3-.2-.5-.3-.2,0-.4,0-.6,0s-.5,0-.7.1c-.2,0-.4.2-.5.3-.1.1-.2.3-.3.4,0,.2-.1.3-.1.5h0v9.7h-2.1v-9.5c0-.3,0-.5,0-.7,0-.2-.2-.4-.3-.5-.1-.1-.3-.2-.4-.3-.2,0-.4,0-.6,0s-.5,0-.7,0c-.2,0-.3.1-.5.2,0,0-.2.2-.3.3,0,.1-.1.2-.2.4v10.1h-2.1v-12.7h2ZM958.2,403.6h-5.7l-1.4,4.4h-2.2l5.5-17.1h1.8l5.4,17.1h-2.2l-1.3-4.4ZM953.1,401.7h4.5l-2.2-7.4-2.3,7.4ZM966.4,401.6c0-.9.1-1.8.4-2.6.2-.8.6-1.5,1-2.1.4-.6,1-1,1.6-1.3.6-.3,1.3-.5,2.1-.5s1.4.1,2,.4c.6.2,1.1.6,1.5,1.1v-6.6h2.2v18h-2v-1.3c-.5.5-1,.9-1.6,1.2-.6.3-1.3.4-2.1.4s-1.5-.2-2.1-.5c-.6-.3-1.1-.8-1.6-1.4-.4-.6-.8-1.3-1-2-.2-.8-.4-1.6-.4-2.5v-.2ZM968.6,401.8c0,.6,0,1.2.2,1.8.1.6.3,1,.6,1.5.3.4.6.8,1.1,1,.4.2.9.4,1.5.4s1.3-.2,1.8-.5c.5-.3.9-.8,1.1-1.3v-5.9c-.3-.5-.7-.9-1.1-1.3-.5-.3-1.1-.5-1.8-.5s-1.1.1-1.6.4c-.4.2-.8.6-1.1,1-.3.4-.5.9-.6,1.5-.1.6-.2,1.1-.2,1.8v.2ZM992,408c0-.2-.2-.4-.2-.6,0-.2,0-.5-.1-.8-.2.2-.5.4-.7.6-.3.2-.6.4-.9.5-.3.1-.7.3-1,.4-.4,0-.8.1-1.2.1-.7,0-1.3,0-1.8-.3-.5-.2-1-.5-1.4-.8-.4-.3-.7-.7-.9-1.2-.2-.5-.3-1-.3-1.5s.1-1.3.4-1.8c.3-.5.7-1,1.2-1.3.5-.3,1.1-.6,1.8-.8.7-.2,1.5-.3,2.4-.3h2.4v-1c0-.4,0-.7-.2-1-.1-.3-.3-.6-.6-.8-.3-.2-.6-.4-.9-.5-.4-.1-.8-.2-1.2-.2s-.8,0-1.2.2c-.3.1-.6.3-.9.4-.2.2-.4.4-.6.6-.1.2-.2.5-.2.8h-2.2c0-.5.1-.9.4-1.4.2-.4.6-.8,1-1.2.4-.4,1-.6,1.6-.9.6-.2,1.3-.3,2.1-.3s1.4,0,2,.3c.6.2,1.2.4,1.6.8.4.4.8.8,1.1,1.3.3.5.4,1.2.4,1.9v5.9c0,.4,0,.9.1,1.3,0,.5.2.9.3,1.2v.2h-2.3ZM988.2,406.3c.4,0,.8,0,1.2-.2.4-.1.7-.3,1-.4.3-.2.6-.4.8-.6.2-.2.4-.5.5-.7v-2.6h-2c-.8,0-1.4,0-2,.2-.6.1-1,.3-1.3.6-.2.2-.4.4-.5.7-.1.3-.2.6-.2.9s0,.6.2.9c.1.3.3.5.5.7.2.2.5.3.8.5.3.1.7.2,1.1.2ZM1000.5,412.9v-17.6h2v1.4c.3-.2.5-.4.7-.6.2-.2.4-.3.7-.5.3-.2.7-.3,1.1-.4.4-.1.8-.2,1.3-.2.8,0,1.5.2,2.2.5.6.3,1.1.8,1.6,1.3.4.6.7,1.3,1,2.1.2.8.3,1.7.3,2.6v.2c0,.9-.1,1.8-.3,2.5-.2.8-.5,1.5-1,2-.4.6-.9,1-1.6,1.4-.6.3-1.3.5-2.1.5s-.9,0-1.4-.2c-.4-.1-.8-.2-1.1-.4-.2-.1-.4-.2-.6-.4-.2-.1-.4-.3-.5-.5v6.1h-2.2ZM1009,401.6c0-.6,0-1.2-.2-1.8-.1-.6-.3-1.1-.6-1.5-.3-.4-.6-.8-1.1-1s-1-.4-1.6-.4-.7,0-.9.1c-.3,0-.5.2-.8.3-.2.1-.5.3-.7.6-.2.2-.4.5-.5.7v6.1c.1.2.3.5.5.7.2.2.4.4.6.5.2.2.5.3.8.4.3,0,.7.1,1,.1.6,0,1.1-.1,1.6-.4.4-.3.8-.6,1.1-1,.3-.4.5-.9.6-1.5.1-.6.2-1.2.2-1.8v-.2ZM1022.4,392.2v3.1h4.8v1.7h-4.8v6.9c0,.5,0,.9.2,1.2.1.3.3.6.5.8.2.2.5.3.8.4.3,0,.6.1.9.1s.5,0,.7,0c.2,0,.5,0,.7-.1.2,0,.4,0,.7-.1.2,0,.4,0,.5-.1l.3,1.5c-.2.1-.4.2-.7.3-.3,0-.5.1-.8.2-.3,0-.6.1-1,.1-.3,0-.7,0-1,0-.6,0-1.1,0-1.6-.2-.5-.2-.9-.4-1.3-.8-.4-.3-.6-.8-.9-1.3-.2-.6-.3-1.2-.3-2v-6.9h-3.3v-1.7h3.3v-3.1h2.2ZM1034.4,395.3h6.5v10.8h4.1v1.9h-10.6v-1.9h4.3v-8.9h-4.3v-1.9ZM1038.5,392c0-.2,0-.4,0-.5,0-.2.2-.3.3-.4.1-.1.2-.2.4-.2.2,0,.3,0,.6,0s.4,0,.5,0c.2,0,.3.1.4.2.1.1.2.2.3.4,0,.2,0,.3,0,.5,0,.4-.1.6-.3.9-.2.2-.5.4-1,.4s-.8-.1-1-.4c-.2-.2-.3-.5-.3-.9ZM1055.2,408l-5.2-12.7h2.2l3.6,9.6.2.8.2-.8,3.5-9.6h2.2l-5.2,12.7h-1.7ZM1073.3,408.2c-.9,0-1.7-.2-2.5-.5-.7-.3-1.4-.7-1.9-1.3s-.9-1.2-1.2-1.9c-.3-.8-.4-1.6-.4-2.4v-.5c0-1,.2-1.9.5-2.7.3-.8.8-1.5,1.3-2.1.5-.6,1.2-1,1.8-1.3.7-.3,1.4-.4,2.1-.4s1.7.2,2.4.5c.7.3,1.3.7,1.7,1.3.4.6.8,1.2,1,2,.2.8.3,1.6.3,2.5v1h-9.1c0,.7.2,1.2.4,1.7.2.5.5.9.8,1.2.3.4.8.7,1.2.9.5.2,1,.3,1.6.3s1.5-.2,2.1-.5c.6-.3,1.1-.7,1.5-1.2l1.3,1c-.4.6-1,1.2-1.9,1.7-.8.5-1.9.7-3.1.7ZM1073.1,396.9c-.4,0-.9,0-1.2.2-.4.2-.8.4-1.1.7-.3.3-.6.7-.8,1.1-.2.4-.4,1-.4,1.5h6.8c0-.5,0-.9-.2-1.4-.2-.5-.4-.8-.6-1.2-.3-.3-.6-.6-1-.8s-.9-.3-1.4-.3ZM1112.9,392.8h-5.3v15.2h-2.1v-15.2h-5.3v-1.9h12.7v1.9ZM1126.5,408c0-.2-.2-.4-.2-.6,0-.2,0-.5-.1-.8-.2.2-.5.4-.7.6-.3.2-.6.4-.9.5-.3.1-.7.3-1,.4-.4,0-.8.1-1.2.1-.7,0-1.3,0-1.8-.3-.5-.2-1-.5-1.4-.8-.4-.3-.7-.7-.9-1.2-.2-.5-.3-1-.3-1.5s.1-1.3.4-1.8c.3-.5.7-1,1.2-1.3.5-.3,1.1-.6,1.8-.8.7-.2,1.5-.3,2.4-.3h2.4v-1c0-.4,0-.7-.2-1-.1-.3-.3-.6-.6-.8-.3-.2-.6-.4-.9-.5-.4-.1-.8-.2-1.2-.2s-.8,0-1.2.2-.6.3-.9.4c-.2.2-.4.4-.6.6-.1.2-.2.5-.2.8h-2.2c0-.5.1-.9.3-1.4.2-.4.6-.8,1-1.2.4-.4,1-.6,1.6-.9s1.3-.3,2.1-.3,1.4,0,2,.3c.6.2,1.2.4,1.6.8.4.4.8.8,1,1.3.3.5.4,1.2.4,1.9v5.9c0,.4,0,.9.1,1.3,0,.5.2.9.3,1.2v.2h-2.3ZM1122.7,406.3c.4,0,.8,0,1.2-.2.4-.1.7-.3,1-.4s.6-.4.8-.6c.2-.2.4-.5.5-.7v-2.6h-2c-.8,0-1.4,0-2,.2-.6.1-1,.3-1.3.6-.2.2-.4.4-.5.7-.1.3-.2.6-.2.9s0,.6.2.9c.1.3.3.5.5.7.2.2.5.3.8.5.3.1.7.2,1.1.2ZM1145.7,401.8c0,.6,0,1.1-.1,1.6,0,.5-.2,1-.3,1.4-.2.6-.5,1.1-.8,1.6-.3.5-.7.8-1.2,1.1-.3.2-.7.4-1.1.5-.4.1-.8.2-1.3.2s-1.1,0-1.5-.2-.8-.3-1.2-.6c-.2-.1-.3-.3-.5-.4-.2-.1-.3-.3-.5-.5v1.4h-2.1v-18h2.2v6.7c.2-.2.4-.4.6-.6.2-.2.4-.3.7-.5.3-.2.7-.3,1-.4.4,0,.8-.1,1.2-.1s1.1,0,1.5.2c.5.1.9.4,1.2.6.3.2.6.6.9.9.3.4.5.7.7,1.2.2.5.4,1,.5,1.6.1.6.2,1.2.2,1.9v.2ZM1143.6,401.6c0-.4,0-.8,0-1.2,0-.4-.1-.7-.2-1.1-.1-.4-.3-.8-.6-1.1-.2-.3-.5-.6-.8-.8-.2-.1-.5-.2-.8-.3s-.6-.1-.9-.1-.7,0-1,.2c-.3,0-.6.2-.8.4-.2.2-.5.4-.7.6-.2.2-.3.5-.5.8v5.5c.1.3.3.5.5.8.2.2.4.4.7.6s.5.3.9.4c.3,0,.6.1,1,.1s.7,0,1-.1c.3,0,.6-.2.8-.4.3-.2.6-.5.8-.8.2-.3.4-.7.5-1.1,0-.3.2-.6.2-1,0-.4,0-.7,0-1.1v-.2ZM1160.2,408v-1.7c-.6.6-1.1,1.1-1.7,1.5-.6.3-1.4.5-2.2.5s-1.3-.1-1.8-.3c-.5-.2-1-.5-1.4-1-.4-.4-.7-1-.9-1.7-.2-.7-.3-1.5-.3-2.4v-7.5h2.2v7.6c0,.7,0,1.3.2,1.7s.3.8.5,1.1c.2.3.5.5.8.6.3.1.7.2,1.1.2s.9,0,1.3-.2c.4-.1.7-.3,1-.5.2-.2.4-.4.6-.6.2-.2.3-.5.4-.8v-9.1h2.2v12.7h-2ZM1194.4,403.7c0-.5-.1-1-.4-1.3-.2-.4-.5-.7-.9-.9-.4-.2-.8-.4-1.2-.6-.4-.2-.9-.3-1.3-.4-.6-.2-1.2-.4-1.8-.7-.6-.3-1.2-.6-1.7-1-.5-.4-.9-.9-1.3-1.4-.3-.5-.5-1.2-.5-1.9s.2-1.4.5-2c.3-.6.8-1.1,1.3-1.5.5-.4,1.1-.7,1.8-.9.7-.2,1.3-.3,2-.3s1.5.1,2.1.4c.7.2,1.3.6,1.8,1,.5.4,1,1,1.3,1.6.3.6.5,1.3.5,2.1h-2.2c0-.5-.2-.9-.4-1.3-.2-.4-.4-.8-.7-1-.3-.3-.7-.5-1.1-.7-.4-.2-.9-.2-1.4-.2s-.8,0-1.2.2c-.4.1-.7.3-1,.5-.3.2-.6.5-.8.9-.2.3-.3.7-.3,1.2s.1.9.4,1.3c.2.3.5.6.9.9.4.2.8.4,1.2.6.4.2.8.3,1.2.4.6.2,1.3.4,1.9.7.6.3,1.2.6,1.7,1.1.5.4.9.9,1.2,1.5.3.6.5,1.2.5,2s-.2,1.4-.5,2c-.3.6-.8,1-1.3,1.4-.5.4-1.2.7-1.8.9-.7.2-1.4.3-2,.3s-1.6-.1-2.4-.4c-.8-.3-1.5-.7-2-1.2-.5-.4-.9-1-1.2-1.6-.3-.6-.5-1.3-.5-2h2.2c0,.5.2,1,.4,1.4.2.4.5.8.8,1,.3.3.7.5,1.2.7.5.1.9.2,1.5.2s.8,0,1.2-.2c.4-.1.8-.3,1.1-.5.3-.2.6-.5.8-.8.2-.3.3-.8.3-1.2ZM1207.8,408.2c-.9,0-1.7-.2-2.5-.5-.7-.3-1.4-.7-1.9-1.3s-.9-1.2-1.2-1.9-.4-1.6-.4-2.4v-.5c0-1,.2-1.9.5-2.7.3-.8.8-1.5,1.3-2.1.5-.6,1.2-1,1.8-1.3.7-.3,1.4-.4,2.1-.4s1.7.2,2.4.5c.7.3,1.3.7,1.7,1.3.4.6.8,1.2,1,2,.2.8.3,1.6.3,2.5v1h-9.1c0,.7.2,1.2.4,1.7.2.5.5.9.8,1.2.3.4.8.7,1.2.9.5.2,1,.3,1.6.3s1.5-.2,2.1-.5c.6-.3,1.1-.7,1.5-1.2l1.3,1c-.4.6-1.1,1.2-1.9,1.7-.8.5-1.9.7-3.1.7ZM1207.6,396.9c-.4,0-.8,0-1.2.2-.4.2-.7.4-1.1.7-.3.3-.6.7-.8,1.1-.2.4-.4,1-.4,1.5h6.8c0-.5,0-.9-.2-1.4-.2-.5-.4-.8-.6-1.2-.3-.3-.6-.6-1-.8-.4-.2-.9-.3-1.4-.3ZM1227.4,408c0-.2-.2-.4-.2-.6,0-.2,0-.5-.1-.8-.2.2-.5.4-.7.6-.3.2-.6.4-.9.5-.3.1-.7.3-1,.4-.4,0-.8.1-1.2.1-.7,0-1.3,0-1.8-.3-.5-.2-1-.5-1.4-.8-.4-.3-.7-.7-.9-1.2-.2-.5-.3-1-.3-1.5s.1-1.3.4-1.8c.3-.5.7-1,1.2-1.3.5-.3,1.1-.6,1.8-.8.7-.2,1.5-.3,2.4-.3h2.4v-1c0-.4,0-.7-.2-1s-.3-.6-.6-.8c-.3-.2-.6-.4-.9-.5s-.8-.2-1.2-.2-.8,0-1.2.2c-.3.1-.6.3-.8.4-.2.2-.4.4-.6.6-.1.2-.2.5-.2.8h-2.2c0-.5.1-.9.3-1.4.2-.4.6-.8,1-1.2.4-.4,1-.6,1.6-.9.6-.2,1.3-.3,2.1-.3s1.4,0,2,.3c.6.2,1.1.4,1.6.8.4.4.8.8,1.1,1.3.2.5.4,1.2.4,1.9v5.9c0,.4,0,.9.1,1.3,0,.5.2.9.3,1.2v.2h-2.3ZM1223.6,406.3c.4,0,.8,0,1.2-.2.4-.1.7-.3,1-.4.3-.2.6-.4.8-.6.2-.2.4-.5.5-.7v-2.6h-2c-.8,0-1.4,0-2,.2-.6.1-1,.3-1.3.6-.2.2-.4.4-.5.7s-.2.6-.2.9,0,.6.2.9c.1.3.3.5.5.7.2.2.5.3.8.5.3.1.7.2,1.1.2ZM1244.2,395.1c.4,0,.8,0,1.2,0,.4,0,.8.1,1,.2l-.3,2.1c-.4,0-.8-.2-1.2-.2-.4,0-.8,0-1.2,0s-1,0-1.4.2c-.4.1-.8.3-1.1.6-.3.2-.5.5-.8.8-.2.3-.4.7-.5,1.1v8.1h-2.2v-12.7h2.1v1.7c0,0,0,.3,0,.3.5-.7,1.1-1.2,1.8-1.6.7-.4,1.6-.6,2.5-.6ZM1258.1,406.5c.4,0,.8,0,1.1-.2.4-.1.7-.3,1-.5.3-.2.5-.5.7-.8.2-.3.3-.6.3-1h2.1c0,.6-.2,1.1-.4,1.6-.3.5-.7,1-1.1,1.3-.5.4-1,.7-1.6.9-.6.2-1.3.3-1.9.3s-1.8-.2-2.5-.5c-.7-.3-1.3-.8-1.8-1.4-.5-.6-.8-1.2-1.1-2-.2-.8-.4-1.6-.4-2.4v-.5c0-.8.1-1.6.4-2.4.2-.8.6-1.4,1.1-2,.5-.6,1.1-1,1.8-1.4.7-.3,1.6-.5,2.5-.5s1.4.1,2.1.4c.6.2,1.2.6,1.6,1,.4.4.8.9,1.1,1.5.3.6.4,1.2.4,1.8h-2.1c0-.4,0-.7-.3-1.1-.1-.3-.4-.6-.6-.9-.3-.3-.6-.5-1-.6-.4-.1-.8-.2-1.2-.2-.7,0-1.2.1-1.7.4-.5.3-.8.6-1.1,1-.3.4-.5.9-.6,1.5-.1.5-.2,1.1-.2,1.6v.5c0,.6,0,1.1.2,1.7.1.5.3,1,.6,1.5.3.4.6.8,1.1,1.1.5.3,1,.4,1.7.4ZM1271.7,397.2c.2-.3.4-.5.6-.7.2-.2.4-.4.7-.6.4-.3.8-.5,1.2-.6.4-.1.9-.2,1.4-.2.7,0,1.3,0,1.8.3.5.2,1,.5,1.4.9.4.4.7.9.9,1.5.2.6.3,1.4.3,2.2v8h-2.2v-8c0-.5,0-.9-.2-1.3-.1-.4-.3-.7-.5-.9-.2-.3-.5-.5-.9-.6-.4-.1-.8-.2-1.3-.2-.4,0-.8,0-1.1.2-.3.1-.7.3-1,.5-.2.2-.5.3-.7.6-.2.2-.4.4-.5.7v9.2h-2.2v-18h2.2v7.2ZM961.5,424.8h-5.3v15.2h-2.1v-15.2h-5.3v-1.9h12.7v1.9ZM975.2,440c0-.2-.2-.4-.2-.6,0-.2,0-.5-.1-.8-.2.2-.5.4-.7.6-.3.2-.6.4-.9.5-.3.1-.7.3-1,.4-.4,0-.8.1-1.2.1-.7,0-1.3,0-1.8-.3-.5-.2-1-.5-1.4-.8-.4-.3-.7-.7-.9-1.2-.2-.5-.3-1-.3-1.5s.1-1.3.4-1.8c.3-.5.7-1,1.2-1.3.5-.3,1.1-.6,1.8-.8.7-.2,1.5-.3,2.4-.3h2.4v-1c0-.4,0-.7-.2-1-.1-.3-.3-.6-.6-.8-.3-.2-.6-.4-.9-.5-.4-.1-.8-.2-1.2-.2s-.8,0-1.2.2c-.3.1-.6.3-.9.4-.2.2-.4.4-.6.6-.1.2-.2.5-.2.8h-2.2c0-.5.1-.9.4-1.4.2-.4.6-.8,1-1.2.4-.4,1-.6,1.6-.9.6-.2,1.3-.3,2.1-.3s1.4,0,2,.3c.6.2,1.2.4,1.6.8.4.4.8.8,1.1,1.3.3.5.4,1.2.4,1.9v5.9c0,.4,0,.9.1,1.3,0,.5.2.9.3,1.2v.2h-2.3ZM971.4,438.3c.4,0,.8,0,1.2-.2.4-.1.7-.3,1-.4.3-.2.6-.4.8-.6.2-.2.4-.5.5-.7v-2.6h-2c-.8,0-1.4,0-2,.2-.6.1-1,.3-1.3.6-.2.2-.4.4-.5.7-.1.3-.2.6-.2.9s0,.6.2.9c.1.3.3.5.5.7.2.2.5.3.8.5.3.1.7.2,1.1.2ZM994.4,433.8c0,.6,0,1.1-.1,1.6,0,.5-.2,1-.4,1.4-.2.6-.5,1.1-.8,1.6-.3.5-.7.8-1.2,1.1-.3.2-.7.4-1.1.5-.4.1-.8.2-1.3.2s-1,0-1.5-.2c-.4-.1-.8-.3-1.2-.6-.2-.1-.3-.3-.5-.4-.2-.1-.3-.3-.4-.5v1.4h-2.1v-18h2.2v6.7c.2-.2.4-.4.6-.6.2-.2.5-.3.7-.5.3-.2.7-.3,1-.4s.8-.1,1.2-.1,1,0,1.5.2c.5.1.9.4,1.3.6.3.2.6.6.9.9.3.4.5.7.7,1.2.2.5.4,1,.5,1.6.1.6.2,1.2.2,1.9v.2ZM992.2,433.6c0-.4,0-.8,0-1.2,0-.4-.1-.7-.2-1.1-.1-.4-.3-.8-.6-1.1-.2-.3-.5-.6-.8-.8-.2-.1-.5-.2-.8-.3s-.6-.1-.9-.1-.7,0-1,.2c-.3,0-.6.2-.8.4-.2.2-.5.4-.7.6-.2.2-.3.5-.5.8v5.5c.1.3.3.5.5.8.2.2.4.4.7.6s.5.3.8.4c.3,0,.7.1,1,.1s.7,0,1-.1c.3,0,.6-.2.8-.4.3-.2.6-.5.8-.8s.4-.7.5-1.1c.1-.3.2-.6.2-1,0-.4,0-.7,0-1.1v-.2ZM1008.8,440v-1.7c-.6.6-1.1,1.1-1.7,1.5-.6.3-1.4.5-2.2.5s-1.3-.1-1.8-.3c-.5-.2-1-.5-1.4-1-.4-.4-.7-1-.9-1.7-.2-.7-.3-1.5-.3-2.4v-7.5h2.2v7.6c0,.7,0,1.3.2,1.7s.3.8.5,1.1c.2.3.5.5.8.6.3.1.7.2,1.1.2s.9,0,1.3-.2c.4-.1.7-.3,1-.5.2-.2.4-.4.6-.6.2-.2.3-.5.5-.8v-9.1h2.2v12.7h-2ZM1043,435.7c0-.5-.1-1-.4-1.3-.2-.4-.5-.7-.9-.9-.4-.2-.8-.4-1.2-.6-.5-.2-.9-.3-1.3-.4-.6-.2-1.2-.4-1.8-.7-.6-.3-1.2-.6-1.7-1-.5-.4-.9-.9-1.3-1.4-.3-.5-.5-1.2-.5-1.9s.2-1.4.5-2c.3-.6.8-1.1,1.3-1.5.5-.4,1.1-.7,1.8-.9.7-.2,1.3-.3,2-.3s1.5.1,2.1.4c.7.2,1.3.6,1.8,1,.5.4,1,1,1.3,1.6.3.6.5,1.3.5,2.1h-2.2c0-.5-.2-.9-.4-1.3-.2-.4-.4-.8-.7-1-.3-.3-.6-.5-1.1-.7-.4-.2-.9-.2-1.4-.2s-.8,0-1.2.2c-.4.1-.7.3-1,.5-.3.2-.6.5-.8.9-.2.3-.3.7-.3,1.2,0,.5.1.9.4,1.3.2.3.6.6.9.9.4.2.8.4,1.2.6.4.2.9.3,1.2.4.6.2,1.3.4,1.9.7.6.3,1.2.6,1.7,1.1.5.4.9.9,1.2,1.5.3.6.5,1.2.5,2s-.2,1.4-.5,2c-.3.6-.8,1-1.3,1.4-.5.4-1.2.7-1.8.9-.7.2-1.3.3-2,.3s-1.6-.1-2.4-.4c-.8-.3-1.5-.7-2-1.2-.5-.4-.9-1-1.2-1.6-.3-.6-.5-1.3-.5-2h2.2c0,.5.2,1,.4,1.4.2.4.5.8.8,1,.3.3.7.5,1.2.7.4.1.9.2,1.5.2s.8,0,1.2-.2c.4-.1.8-.3,1.1-.5.3-.2.6-.5.8-.8.2-.3.3-.8.3-1.2ZM1056.5,440.2c-.9,0-1.7-.2-2.5-.5-.7-.3-1.4-.7-1.9-1.3-.5-.5-.9-1.2-1.2-1.9-.3-.8-.4-1.6-.4-2.4v-.5c0-1,.2-1.9.5-2.7.3-.8.8-1.5,1.3-2.1.5-.6,1.2-1,1.8-1.3.7-.3,1.4-.4,2.1-.4s1.7.2,2.4.5c.7.3,1.3.7,1.7,1.3.5.6.8,1.2,1,2,.2.8.3,1.6.3,2.5v1h-9.1c0,.7.2,1.2.4,1.7s.5.9.8,1.2c.3.4.8.7,1.2.9.5.2,1,.3,1.6.3s1.5-.2,2.1-.5c.6-.3,1.1-.7,1.5-1.2l1.3,1c-.4.6-1.1,1.2-1.9,1.7-.8.5-1.9.7-3.1.7ZM1056.2,428.9c-.4,0-.8,0-1.2.2-.4.2-.7.4-1.1.7-.3.3-.6.7-.8,1.1-.2.4-.4,1-.5,1.5h6.8c0-.5,0-.9-.2-1.4-.2-.5-.4-.8-.6-1.2-.3-.3-.6-.6-1-.8-.4-.2-.9-.3-1.4-.3ZM1076.1,440c0-.2-.2-.4-.2-.6,0-.2,0-.5-.1-.8-.2.2-.5.4-.7.6-.3.2-.6.4-.9.5-.3.1-.7.3-1.1.4-.4,0-.8.1-1.2.1-.7,0-1.3,0-1.8-.3-.5-.2-1-.5-1.4-.8-.4-.3-.7-.7-.9-1.2-.2-.5-.3-1-.3-1.5s.1-1.3.4-1.8c.3-.5.7-1,1.2-1.3.5-.3,1.1-.6,1.8-.8.7-.2,1.5-.3,2.4-.3h2.4v-1c0-.4,0-.7-.2-1s-.3-.6-.6-.8c-.3-.2-.6-.4-1-.5-.4-.1-.8-.2-1.2-.2s-.8,0-1.2.2c-.3.1-.6.3-.9.4-.2.2-.4.4-.5.6-.1.2-.2.5-.2.8h-2.2c0-.5.1-.9.4-1.4.2-.4.6-.8,1-1.2.4-.4,1-.6,1.6-.9.6-.2,1.3-.3,2.1-.3s1.4,0,2,.3c.6.2,1.2.4,1.6.8.5.4.8.8,1.1,1.3.3.5.4,1.2.4,1.9v5.9c0,.4,0,.9.1,1.3,0,.5.2.9.3,1.2v.2h-2.3ZM1072.2,438.3c.4,0,.8,0,1.2-.2.4-.1.7-.3,1-.4.3-.2.5-.4.8-.6.2-.2.4-.5.5-.7v-2.6h-2c-.8,0-1.4,0-2,.2-.5.1-1,.3-1.3.6-.2.2-.4.4-.5.7-.1.3-.2.6-.2.9s0,.6.2.9c.1.3.3.5.5.7.2.2.5.3.8.5.3.1.7.2,1.1.2ZM1092.9,427.1c.4,0,.8,0,1.2,0,.4,0,.8.1,1,.2l-.3,2.1c-.4,0-.8-.2-1.2-.2-.4,0-.8,0-1.2,0s-1,0-1.4.2c-.4.1-.8.3-1.1.6-.3.2-.5.5-.8.8-.2.3-.4.7-.5,1.1v8.1h-2.2v-12.7h2.1v1.7c0,0,.1.3.1.3.5-.7,1.1-1.2,1.8-1.6.7-.4,1.5-.6,2.5-.6ZM1106.8,438.5c.4,0,.8,0,1.1-.2.4-.1.7-.3,1-.5.3-.2.5-.5.7-.8.2-.3.3-.6.3-1h2.1c0,.6-.2,1.1-.4,1.6-.3.5-.7,1-1.1,1.3-.5.4-1,.7-1.6.9-.6.2-1.3.3-1.9.3-1,0-1.8-.2-2.5-.5-.7-.3-1.3-.8-1.8-1.4-.5-.6-.8-1.2-1.1-2-.2-.8-.4-1.6-.4-2.4v-.5c0-.8.1-1.6.4-2.4.2-.8.6-1.4,1.1-2,.5-.6,1.1-1,1.8-1.4.7-.3,1.6-.5,2.5-.5s1.4.1,2.1.4c.6.2,1.2.6,1.6,1,.5.4.8.9,1.1,1.5s.4,1.2.4,1.8h-2.1c0-.4,0-.7-.2-1.1-.2-.3-.4-.6-.7-.9s-.6-.5-1-.6c-.4-.1-.8-.2-1.2-.2-.7,0-1.2.1-1.7.4-.4.3-.8.6-1.1,1-.3.4-.5.9-.6,1.5s-.2,1.1-.2,1.6v.5c0,.6,0,1.1.2,1.7.1.5.3,1,.6,1.5.3.4.6.8,1.1,1.1.5.3,1,.4,1.7.4ZM1120.3,429.2c.2-.3.4-.5.6-.7.2-.2.4-.4.7-.6.4-.3.8-.5,1.2-.6.5-.1.9-.2,1.4-.2.7,0,1.3,0,1.8.3.5.2,1,.5,1.4.9.4.4.7.9.9,1.5.2.6.3,1.4.3,2.2v8h-2.2v-8c0-.5,0-.9-.2-1.3-.1-.4-.3-.7-.5-.9-.2-.3-.6-.5-.9-.6-.4-.1-.8-.2-1.3-.2-.4,0-.8,0-1.1.2-.3.1-.7.3-1,.5-.2.2-.5.3-.7.6-.2.2-.4.4-.5.7v9.2h-2.2v-18h2.2v7.2ZM961.1,469.8c-.3.3-.5.6-.8.9-.3.2-.6.5-.9.7-.5.3-1.1.6-1.8.7-.6.2-1.3.2-2,.2-.7,0-1.4-.1-1.9-.3-.6-.2-1.1-.5-1.6-.9-.5-.4-.9-.8-1.2-1.3-.4-.5-.6-1-.9-1.6-.2-.6-.4-1.2-.6-1.8-.1-.6-.2-1.3-.2-1.9v-2c0-.6,0-1.3.2-1.9.1-.6.3-1.2.5-1.8s.5-1.1.8-1.6c.3-.5.7-.9,1.2-1.3.5-.4,1-.6,1.5-.9.6-.2,1.2-.3,1.9-.3s1.5.1,2.2.4c.7.2,1.3.6,1.8,1,.5.5.9,1,1.2,1.7.3.6.5,1.4.6,2.2h-2.1c0-.5-.2-.9-.4-1.4-.2-.4-.4-.8-.7-1.1-.3-.3-.6-.5-1.1-.7-.4-.2-.9-.3-1.4-.3s-1,0-1.4.3c-.4.2-.7.4-1,.7s-.5.6-.7,1c-.2.4-.4.8-.5,1.2-.1.4-.2.9-.3,1.3,0,.5,0,.9,0,1.3v2c0,.4,0,.9.1,1.3,0,.5.2.9.3,1.3.1.4.3.9.5,1.2.2.4.5.7.8,1,.3.3.7.5,1.1.7.4.2.9.3,1.4.3.3,0,.6,0,.9,0,.3,0,.6,0,1-.2.3,0,.6-.2.9-.4.3-.2.5-.4.7-.6v-3.8s-3.4,0-3.4,0v-1.8h5.5v6.3ZM975.2,472v-1.7c-.6.6-1.1,1.1-1.7,1.5-.6.3-1.4.5-2.2.5s-1.3-.1-1.8-.3c-.5-.2-1-.5-1.4-1-.4-.4-.7-1-.9-1.7-.2-.7-.3-1.5-.3-2.4v-7.5h2.2v7.6c0,.7,0,1.3.2,1.7.1.5.3.8.5,1.1.2.3.5.5.8.6.3.1.7.2,1.1.2s.9,0,1.3-.2c.4-.1.7-.3,1-.5.2-.2.4-.4.6-.6.2-.2.3-.5.4-.8v-9.1h2.2v12.7h-2ZM984,459.3h6.5v10.8h4.1v1.9h-10.6v-1.9h4.3v-8.9h-4.3v-1.9ZM988,456c0-.2,0-.4,0-.5,0-.2.2-.3.3-.4.1-.1.2-.2.4-.2.2,0,.3,0,.6,0s.4,0,.5,0c.2,0,.3.1.4.2.1.1.2.2.3.4,0,.2,0,.3,0,.5,0,.4-.1.6-.3.9-.2.2-.5.4-1,.4s-.8-.1-1-.4c-.2-.2-.3-.5-.3-.9ZM1000.1,465.6c0-.9.1-1.8.3-2.6.2-.8.6-1.5,1-2.1.4-.6,1-1,1.6-1.3.6-.3,1.3-.5,2.1-.5s1.4.1,2,.4c.6.2,1.1.6,1.5,1.1v-6.6h2.2v18h-2v-1.3c-.5.5-1,.9-1.6,1.2-.6.3-1.3.4-2,.4s-1.5-.2-2.1-.5-1.1-.8-1.6-1.4c-.4-.6-.8-1.3-1-2-.2-.8-.4-1.6-.4-2.5v-.2ZM1002.2,465.8c0,.6,0,1.2.2,1.8.1.6.3,1,.6,1.5.3.4.6.8,1,1,.4.2,1,.4,1.5.4s1.3-.2,1.8-.5c.5-.3.9-.8,1.1-1.3v-5.9c-.3-.5-.7-.9-1.1-1.3-.5-.3-1.1-.5-1.8-.5s-1.1.1-1.6.4c-.4.2-.8.6-1,1-.3.4-.5.9-.6,1.5-.1.6-.2,1.1-.2,1.8v.2ZM1022.9,472.2c-.9,0-1.7-.2-2.5-.5-.8-.3-1.4-.7-1.9-1.3-.5-.5-1-1.2-1.2-1.9-.3-.8-.4-1.6-.4-2.4v-.5c0-1,.2-1.9.5-2.7.3-.8.8-1.5,1.3-2.1.5-.6,1.2-1,1.8-1.3.7-.3,1.4-.4,2.1-.4s1.7.2,2.4.5c.7.3,1.2.7,1.7,1.3.5.6.8,1.2,1,2,.2.8.3,1.6.3,2.5v1h-9.1c0,.7.2,1.2.4,1.7s.5.9.8,1.2c.3.4.8.7,1.2.9.5.2,1,.3,1.6.3s1.5-.2,2.1-.5c.6-.3,1.1-.7,1.5-1.2l1.3,1c-.4.6-1.1,1.2-1.9,1.7-.8.5-1.9.7-3.1.7ZM1022.6,460.9c-.4,0-.9,0-1.2.2-.4.2-.7.4-1,.7-.3.3-.6.7-.8,1.1-.2.4-.4,1-.4,1.5h6.8c0-.5,0-.9-.2-1.4-.1-.5-.4-.8-.6-1.2-.3-.3-.6-.6-1-.8-.4-.2-.9-.3-1.4-.3ZM1033.7,465.6c0-.9.1-1.8.4-2.6.2-.8.6-1.5,1-2.1.4-.6,1-1,1.6-1.3.6-.3,1.3-.5,2.1-.5s1.4.1,2,.4c.6.2,1.1.6,1.5,1.1v-6.6h2.2v18h-2v-1.3c-.5.5-1,.9-1.6,1.2-.6.3-1.3.4-2.1.4s-1.5-.2-2.1-.5c-.6-.3-1.1-.8-1.6-1.4-.4-.6-.8-1.3-1-2-.2-.8-.4-1.6-.4-2.5v-.2ZM1035.9,465.8c0,.6,0,1.2.2,1.8.1.6.3,1,.6,1.5.3.4.6.8,1.1,1,.4.2.9.4,1.6.4s1.3-.2,1.8-.5c.5-.3.9-.8,1.1-1.3v-5.9c-.3-.5-.7-.9-1.1-1.3-.5-.3-1.1-.5-1.8-.5s-1.1.1-1.6.4c-.4.2-.8.6-1.1,1-.3.4-.5.9-.6,1.5-.1.6-.2,1.1-.2,1.8v.2ZM1070.2,470.2h8.3v1.8h-10.5v-17.1h2.2v15.2ZM1083.9,465.5c0-.9.1-1.8.4-2.5.3-.8.7-1.5,1.2-2.1.5-.6,1.1-1,1.8-1.4.7-.3,1.5-.5,2.4-.5s1.7.2,2.4.5c.7.3,1.3.8,1.8,1.4.5.6.9,1.3,1.1,2.1.3.8.4,1.6.4,2.5v.3c0,.9-.1,1.8-.4,2.5-.3.8-.6,1.5-1.1,2-.5.6-1.1,1-1.8,1.4s-1.5.5-2.4.5-1.7-.2-2.4-.5c-.7-.3-1.3-.8-1.8-1.4-.5-.6-.9-1.3-1.2-2-.3-.8-.4-1.6-.4-2.5v-.3ZM1086.1,465.8c0,.6,0,1.2.2,1.8.2.6.4,1.1.7,1.5s.7.8,1.1,1c.4.2,1,.4,1.6.4s1.1-.1,1.6-.4c.4-.2.8-.6,1.1-1,.3-.4.5-.9.7-1.5.2-.6.2-1.2.2-1.8v-.3c0-.6,0-1.2-.2-1.8-.1-.6-.4-1.1-.7-1.5-.3-.4-.7-.8-1.1-1-.5-.3-1-.4-1.6-.4s-1.1.1-1.6.4c-.4.2-.8.6-1.1,1-.3.4-.5.9-.7,1.5-.1.6-.2,1.2-.2,1.8v.3ZM1106.8,470.5c.4,0,.8,0,1.1-.2.4-.1.7-.3,1-.5.3-.2.5-.5.7-.8.2-.3.3-.6.3-1h2.1c0,.6-.2,1.1-.4,1.6-.3.5-.7,1-1.1,1.3-.5.4-1,.7-1.6.9-.6.2-1.3.3-1.9.3-1,0-1.8-.2-2.5-.5-.7-.3-1.3-.8-1.8-1.4-.5-.6-.8-1.2-1.1-2-.2-.8-.4-1.6-.4-2.4v-.5c0-.8.1-1.6.4-2.4.2-.8.6-1.4,1.1-2,.5-.6,1.1-1,1.8-1.4.7-.3,1.6-.5,2.5-.5s1.4.1,2.1.4c.6.2,1.2.6,1.6,1,.5.4.8.9,1.1,1.5s.4,1.2.4,1.8h-2.1c0-.4,0-.7-.2-1.1-.2-.3-.4-.6-.7-.9s-.6-.5-1-.6c-.4-.1-.8-.2-1.2-.2-.7,0-1.2.1-1.7.4-.4.3-.8.6-1.1,1-.3.4-.5.9-.6,1.5s-.2,1.1-.2,1.6v.5c0,.6,0,1.1.2,1.7.1.5.3,1,.6,1.5.3.4.6.8,1.1,1.1.5.3,1,.4,1.7.4ZM1126.5,472c0-.2-.2-.4-.2-.6,0-.2,0-.5-.1-.8-.2.2-.5.4-.7.6-.3.2-.6.4-.9.5-.3.1-.7.3-1,.4-.4,0-.8.1-1.2.1-.7,0-1.3,0-1.8-.3-.5-.2-1-.5-1.4-.8-.4-.3-.7-.7-.9-1.2-.2-.5-.3-1-.3-1.5s.1-1.3.4-1.8c.3-.5.7-1,1.2-1.3.5-.3,1.1-.6,1.8-.8.7-.2,1.5-.3,2.4-.3h2.4v-1c0-.4,0-.7-.2-1-.1-.3-.3-.6-.6-.8-.3-.2-.6-.4-.9-.5-.4-.1-.8-.2-1.2-.2s-.8,0-1.2.2-.6.3-.9.4c-.2.2-.4.4-.6.6-.1.2-.2.5-.2.8h-2.2c0-.5.1-.9.3-1.4.2-.4.6-.8,1-1.2.4-.4,1-.6,1.6-.9s1.3-.3,2.1-.3,1.4,0,2,.3c.6.2,1.2.4,1.6.8.4.4.8.8,1,1.3.3.5.4,1.2.4,1.9v5.9c0,.4,0,.9.1,1.3,0,.5.2.9.3,1.2v.2h-2.3ZM1122.7,470.3c.4,0,.8,0,1.2-.2.4-.1.7-.3,1-.4s.6-.4.8-.6c.2-.2.4-.5.5-.7v-2.6h-2c-.8,0-1.4,0-2,.2-.6.1-1,.3-1.3.6-.2.2-.4.4-.5.7-.1.3-.2.6-.2.9s0,.6.2.9c.1.3.3.5.5.7.2.2.5.3.8.5.3.1.7.2,1.1.2ZM1135.3,454h6.5v16.1h4.1v1.9h-10.6v-1.9h4.3v-14.2h-4.3v-1.9ZM1177.6,467.7c0-.5-.1-1-.4-1.3-.2-.4-.5-.7-.9-.9-.4-.2-.8-.4-1.2-.6-.4-.2-.9-.3-1.3-.4-.6-.2-1.2-.4-1.8-.7-.6-.3-1.2-.6-1.7-1-.5-.4-.9-.9-1.3-1.4-.3-.5-.5-1.2-.5-1.9s.2-1.4.5-2c.3-.6.8-1.1,1.3-1.5.5-.4,1.1-.7,1.8-.9.7-.2,1.3-.3,2-.3s1.5.1,2.2.4c.7.2,1.3.6,1.8,1,.5.4.9,1,1.3,1.6.3.6.5,1.3.5,2.1h-2.2c0-.5-.2-.9-.4-1.3-.2-.4-.4-.8-.7-1-.3-.3-.6-.5-1.1-.7-.4-.2-.9-.2-1.4-.2s-.8,0-1.2.2c-.4.1-.7.3-1,.5-.3.2-.6.5-.8.9-.2.3-.3.7-.3,1.2,0,.5.1.9.4,1.3.2.3.6.6.9.9.4.2.8.4,1.2.6.4.2.8.3,1.2.4.6.2,1.3.4,1.9.7.6.3,1.2.6,1.7,1.1.5.4.9.9,1.2,1.5.3.6.5,1.2.5,2s-.2,1.4-.5,2c-.3.6-.8,1-1.3,1.4-.5.4-1.2.7-1.8.9-.7.2-1.4.3-2,.3s-1.6-.1-2.4-.4c-.8-.3-1.5-.7-2-1.2-.5-.4-.9-1-1.2-1.6-.3-.6-.5-1.3-.5-2h2.2c0,.5.2,1,.4,1.4.2.4.5.8.8,1,.3.3.7.5,1.2.7.4.1.9.2,1.5.2s.8,0,1.2-.2c.4-.1.8-.3,1.1-.5.3-.2.6-.5.8-.8.2-.3.3-.8.3-1.2ZM1191,472.2c-.9,0-1.7-.2-2.5-.5-.8-.3-1.4-.7-1.9-1.3-.5-.5-1-1.2-1.2-1.9-.3-.8-.4-1.6-.4-2.4v-.5c0-1,.2-1.9.5-2.7.3-.8.8-1.5,1.3-2.1.5-.6,1.2-1,1.8-1.3.7-.3,1.4-.4,2.1-.4s1.7.2,2.4.5c.7.3,1.2.7,1.7,1.3.5.6.8,1.2,1,2,.2.8.3,1.6.3,2.5v1h-9.1c0,.7.2,1.2.4,1.7.2.5.5.9.8,1.2.3.4.8.7,1.2.9.5.2,1,.3,1.6.3s1.5-.2,2.1-.5c.6-.3,1.1-.7,1.5-1.2l1.3,1c-.4.6-1.1,1.2-1.9,1.7-.8.5-1.9.7-3.1.7ZM1190.8,460.9c-.4,0-.9,0-1.2.2-.4.2-.7.4-1.1.7-.3.3-.6.7-.8,1.1-.2.4-.4,1-.4,1.5h6.8c0-.5,0-.9-.2-1.4-.1-.5-.4-.8-.6-1.2-.3-.3-.6-.6-1-.8-.4-.2-.9-.3-1.4-.3ZM1210.6,472c0-.2-.1-.4-.2-.6,0-.2,0-.5,0-.8-.2.2-.5.4-.7.6-.3.2-.6.4-.9.5-.3.1-.7.3-1,.4-.4,0-.8.1-1.2.1-.7,0-1.3,0-1.8-.3-.5-.2-1-.5-1.4-.8-.4-.3-.7-.7-.9-1.2-.2-.5-.3-1-.3-1.5s.1-1.3.4-1.8c.3-.5.7-1,1.2-1.3.5-.3,1.1-.6,1.8-.8.7-.2,1.5-.3,2.4-.3h2.4v-1c0-.4,0-.7-.2-1s-.3-.6-.6-.8c-.3-.2-.6-.4-1-.5-.4-.1-.8-.2-1.2-.2s-.8,0-1.2.2c-.3.1-.6.3-.9.4-.2.2-.4.4-.5.6-.1.2-.2.5-.2.8h-2.2c0-.5.1-.9.3-1.4.2-.4.6-.8,1-1.2.4-.4.9-.6,1.6-.9s1.3-.3,2.1-.3,1.4,0,2,.3c.6.2,1.2.4,1.6.8.4.4.8.8,1.1,1.3.3.5.4,1.2.4,1.9v5.9c0,.4,0,.9.1,1.3,0,.5.2.9.3,1.2v.2h-2.3ZM1206.8,470.3c.4,0,.8,0,1.2-.2.4-.1.7-.3,1-.4.3-.2.6-.4.8-.6.2-.2.4-.5.5-.7v-2.6h-2c-.8,0-1.4,0-2,.2-.6.1-1,.3-1.3.6-.2.2-.4.4-.5.7-.1.3-.2.6-.2.9s0,.6.2.9c.1.3.3.5.5.7.2.2.5.3.8.5.3.1.7.2,1.1.2ZM1227.4,459.1c.4,0,.8,0,1.2,0,.4,0,.8.1,1,.2l-.3,2.1c-.4,0-.8-.2-1.2-.2-.4,0-.8,0-1.2,0s-1,0-1.5.2c-.4.1-.8.3-1.1.6-.3.2-.5.5-.8.8-.2.3-.4.7-.5,1.1v8.1h-2.2v-12.7h2.1v1.7c.1,0,.1.3.1.3.5-.7,1.1-1.2,1.8-1.6.7-.4,1.5-.6,2.5-.6ZM1241.3,470.5c.4,0,.8,0,1.1-.2s.7-.3,1-.5c.3-.2.5-.5.7-.8.2-.3.3-.6.3-1h2c0,.6-.2,1.1-.4,1.6-.3.5-.7,1-1.1,1.3-.5.4-1,.7-1.6.9-.6.2-1.3.3-1.9.3-1,0-1.8-.2-2.5-.5-.7-.3-1.3-.8-1.8-1.4-.5-.6-.8-1.2-1.1-2-.2-.8-.4-1.6-.4-2.4v-.5c0-.8.1-1.6.4-2.4.2-.8.6-1.4,1.1-2,.5-.6,1.1-1,1.8-1.4.7-.3,1.6-.5,2.5-.5s1.4.1,2.1.4c.6.2,1.2.6,1.6,1,.5.4.8.9,1.1,1.5s.4,1.2.4,1.8h-2c0-.4,0-.7-.3-1.1-.2-.3-.4-.6-.7-.9-.3-.3-.6-.5-1-.6-.4-.1-.8-.2-1.2-.2-.7,0-1.2.1-1.7.4-.4.3-.8.6-1.1,1-.3.4-.5.9-.6,1.5-.1.5-.2,1.1-.2,1.6v.5c0,.6,0,1.1.2,1.7.1.5.3,1,.6,1.5.3.4.6.8,1.1,1.1.5.3,1,.4,1.7.4ZM1254.9,461.2c.2-.3.4-.5.6-.7.2-.2.4-.4.7-.6.4-.3.8-.5,1.2-.6.5-.1.9-.2,1.4-.2.7,0,1.3,0,1.8.3.6.2,1,.5,1.4.9.4.4.7.9.9,1.5.2.6.3,1.4.3,2.2v8h-2.2v-8c0-.5,0-.9-.2-1.3-.1-.4-.3-.7-.5-.9-.2-.3-.6-.5-.9-.6-.4-.1-.8-.2-1.3-.2-.4,0-.8,0-1.1.2-.4.1-.7.3-1,.5-.2.2-.5.3-.7.6-.2.2-.4.4-.5.7v9.2h-2.2v-18h2.2v7.2ZM960.7,504h-2v-7.9h-7v7.9h-2v-17.1h2v7.3h7v-7.3h2v17.1ZM967.2,491.3h6.5v10.8h4.1v1.9h-10.6v-1.9h4.3v-8.9h-4.3v-1.9ZM971.2,488c0-.2,0-.4,0-.5,0-.2.2-.3.3-.4.1-.1.2-.2.4-.2.2,0,.3,0,.6,0s.4,0,.5,0c.2,0,.3.1.4.2.1.1.2.2.3.4,0,.2,0,.3,0,.5,0,.4-.1.6-.3.9-.2.2-.5.4-1,.4s-.8-.1-1-.4c-.2-.2-.3-.5-.3-.9ZM984,486h6.5v16.1h4.1v1.9h-10.6v-1.9h4.3v-14.2h-4.3v-1.9ZM1000.8,486h6.5v16.1h4.1v1.9h-10.6v-1.9h4.3v-14.2h-4.3v-1.9ZM1045.2,498.9c0,.8-.3,1.5-.6,2.2-.3.7-.7,1.2-1.2,1.7-.5.5-1.1.8-1.8,1.1-.7.3-1.4.4-2.2.4s-1.3,0-1.9-.3c-.6-.2-1.1-.5-1.5-.8-.4-.4-.8-.8-1.2-1.2-.3-.5-.6-1-.8-1.6-.2-.6-.4-1.2-.5-1.8,0-.6-.2-1.2-.2-1.9v-2.4c0-.6,0-1.3.2-1.9.1-.6.3-1.2.5-1.8.2-.6.5-1.1.8-1.6.3-.5.7-.9,1.2-1.3.4-.4,1-.6,1.5-.8.6-.2,1.2-.3,1.9-.3s1.6.1,2.3.4c.7.3,1.2.6,1.7,1.1.5.5.9,1.1,1.2,1.7.3.7.5,1.4.6,2.2h-2.2c0-.5-.2-1-.4-1.4-.2-.4-.4-.8-.7-1.2-.3-.3-.6-.6-1.1-.8-.4-.2-.9-.3-1.5-.3s-1,0-1.4.3c-.4.2-.7.4-1,.7-.3.3-.5.6-.7,1-.2.4-.3.8-.5,1.2-.1.4-.2.9-.3,1.3,0,.4,0,.9,0,1.3v2.4c0,.4,0,.9,0,1.3,0,.4.1.9.3,1.3.1.4.3.8.5,1.2.2.4.4.7.7,1,.3.3.6.5,1,.7.4.2.8.2,1.4.2s1.1,0,1.5-.3c.4-.2.8-.4,1.1-.8.3-.3.5-.7.7-1.1.2-.4.3-.9.4-1.4h2.2ZM1051.3,486h6.5v16.1h4.1v1.9h-10.6v-1.9h4.3v-14.2h-4.3v-1.9ZM1068.1,491.3h6.5v10.8h4.1v1.9h-10.6v-1.9h4.3v-8.9h-4.3v-1.9ZM1072.1,488c0-.2,0-.4,0-.5,0-.2.2-.3.3-.4,0-.1.2-.2.4-.2.2,0,.3,0,.6,0s.4,0,.5,0c.2,0,.3.1.4.2.1.1.2.2.3.4,0,.2,0,.3,0,.5,0,.4-.1.6-.3.9s-.5.4-1,.4-.8-.1-1-.4c-.2-.2-.3-.5-.3-.9ZM1085.6,491.3v1.2c.3-.4.6-.8,1.1-1,.4-.2.9-.4,1.5-.4.3,0,.6,0,.9.1.3,0,.5.2.7.3.2.1.3.2.4.4.1.2.2.3.3.5.1-.2.2-.3.4-.5.1-.2.3-.3.5-.4.2-.1.5-.2.7-.3.3,0,.6-.1.9-.1.4,0,.8,0,1.2.2.3.1.7.3.9.6.3.3.5.6.6,1.1.1.4.2,1,.2,1.6v9.5h-2.1v-9.5c0-.3,0-.5-.1-.7,0-.2-.1-.4-.3-.5-.1-.1-.3-.2-.5-.3-.2,0-.4,0-.6,0s-.5,0-.7.1c-.2,0-.3.2-.5.3-.1.1-.2.3-.3.4,0,.2-.1.3-.1.5h0v9.7h-2.1v-9.5c0-.3,0-.5,0-.7,0-.2-.1-.4-.3-.5-.1-.1-.3-.2-.4-.3-.2,0-.4,0-.6,0s-.5,0-.7,0c-.2,0-.3.1-.5.2,0,0-.2.2-.3.3,0,.1-.1.2-.2.4v10.1h-2.1v-12.7h2ZM1112.1,497.8c0,.6,0,1.1-.1,1.6,0,.5-.2,1-.3,1.4-.2.6-.5,1.1-.8,1.6-.3.5-.7.8-1.2,1.1-.3.2-.7.4-1.1.5-.4.1-.8.2-1.3.2s-1.1,0-1.5-.2-.8-.3-1.2-.6c-.2-.1-.3-.3-.5-.4-.2-.1-.3-.3-.4-.5v1.4h-2.1v-18h2.2v6.7c.2-.2.4-.4.6-.6.2-.2.5-.3.7-.5.3-.2.7-.3,1-.4.4,0,.8-.1,1.2-.1s1.1,0,1.5.2c.5.1.9.4,1.2.6.3.2.6.6.9.9.3.4.5.7.7,1.2.2.5.4,1,.5,1.6.1.6.2,1.2.2,1.9v.2ZM1109.9,497.6c0-.4,0-.8,0-1.2,0-.4-.1-.7-.2-1.1-.1-.4-.3-.8-.6-1.1-.2-.3-.5-.6-.8-.8-.2-.1-.5-.2-.8-.3-.3,0-.6-.1-.9-.1s-.7,0-1,.2c-.3,0-.6.2-.8.4-.2.2-.5.4-.7.6-.2.2-.3.5-.5.8v5.5c.1.3.3.5.5.8.2.2.4.4.7.6s.5.3.8.4c.3,0,.7.1,1,.1s.7,0,1-.1c.3,0,.6-.2.8-.4.3-.2.6-.5.8-.8.2-.3.4-.7.5-1.1,0-.3.2-.6.2-1,0-.4,0-.7,0-1.1v-.2ZM1143.1,499.6h-5.7l-1.4,4.4h-2.2l5.5-17.1h1.8l5.4,17.1h-2.2l-1.3-4.4ZM1138,497.7h4.5l-2.2-7.4-2.3,7.4ZM1152.2,486h6.5v16.1h4.1v1.9h-10.6v-1.9h4.3v-14.2h-4.3v-1.9ZM1168.2,497.6c0-.9.1-1.8.3-2.6.2-.8.6-1.5,1-2.1.4-.6,1-1,1.6-1.3.6-.3,1.3-.5,2.1-.5s1,0,1.4.2c.4.1.8.3,1.2.5.2.1.4.3.5.4.2.2.3.3.5.5v-1.4h2.1v12.4c0,.8-.1,1.6-.4,2.2-.2.6-.6,1.2-1.1,1.7-.5.5-1,.8-1.7,1-.7.2-1.4.4-2.2.4s-.7,0-1.1-.1c-.4,0-.9-.2-1.3-.4-.4-.2-.9-.4-1.3-.7-.4-.3-.7-.6-1-1l1.1-1.3c.3.3.5.6.8.8.3.2.6.4.9.5.3.1.6.2.9.3.3,0,.6,0,.9,0,.5,0,1,0,1.4-.2.4-.1.8-.4,1.1-.7.3-.3.5-.6.7-1.1s.2-.9.2-1.5v-1.1c-.2.2-.3.4-.5.5-.2.2-.4.3-.6.4-.3.2-.7.3-1.1.4-.4.1-.8.2-1.3.2-.8,0-1.5-.2-2.1-.5-.6-.3-1.2-.8-1.6-1.4-.4-.6-.8-1.3-1-2-.2-.8-.3-1.6-.3-2.5v-.2ZM1170.4,497.8c0,.6,0,1.2.2,1.8.1.6.3,1,.6,1.5.3.4.6.8,1.1,1,.4.2.9.4,1.6.4s.7,0,1-.1c.3,0,.6-.2.8-.4.2-.2.4-.4.6-.6.2-.2.3-.5.5-.8v-5.8c-.1-.3-.3-.5-.5-.7-.2-.2-.4-.4-.6-.6-.2-.2-.5-.3-.8-.4-.3,0-.6-.1-1-.1-.6,0-1.1.1-1.6.4-.4.2-.8.6-1.1,1-.3.4-.5.9-.6,1.5-.1.6-.2,1.1-.2,1.8v.2ZM1184.8,497.5c0-.9.1-1.8.4-2.5.3-.8.6-1.5,1.1-2.1s1.1-1,1.8-1.4c.7-.3,1.5-.5,2.4-.5s1.7.2,2.4.5c.7.3,1.3.8,1.8,1.4.5.6.9,1.3,1.1,2.1.3.8.4,1.6.4,2.5v.3c0,.9-.1,1.8-.4,2.5-.3.8-.6,1.5-1.1,2-.5.6-1.1,1-1.8,1.4s-1.5.5-2.4.5-1.7-.2-2.4-.5c-.7-.3-1.3-.8-1.8-1.4s-.9-1.3-1.1-2c-.3-.8-.4-1.6-.4-2.5v-.3ZM1187,497.8c0,.6,0,1.2.2,1.8.2.6.4,1.1.7,1.5.3.4.7.8,1.1,1,.5.2,1,.4,1.6.4s1.1-.1,1.6-.4c.5-.2.8-.6,1.1-1,.3-.4.5-.9.7-1.5.2-.6.2-1.2.2-1.8v-.3c0-.6,0-1.2-.2-1.8-.1-.6-.4-1.1-.7-1.5-.3-.4-.7-.8-1.1-1-.4-.3-1-.4-1.6-.4s-1.1.1-1.6.4c-.4.2-.8.6-1.1,1-.3.4-.5.9-.7,1.5-.2.6-.2,1.2-.2,1.8v.3ZM1210.6,491.1c.4,0,.8,0,1.2,0,.4,0,.8.1,1,.2l-.3,2.1c-.4,0-.8-.2-1.2-.2-.4,0-.8,0-1.2,0s-1,0-1.4.2c-.4.1-.8.3-1.1.6-.3.2-.6.5-.8.8-.2.3-.4.7-.5,1.1v8.1h-2.2v-12.7h2.1v1.7c0,0,0,.3,0,.3.5-.7,1.1-1.2,1.9-1.6.7-.4,1.6-.6,2.5-.6ZM1219.4,491.3h6.5v10.8h4.1v1.9h-10.6v-1.9h4.3v-8.9h-4.3v-1.9ZM1223.4,488c0-.2,0-.4,0-.5,0-.2.2-.3.3-.4,0-.1.2-.2.4-.2.2,0,.3,0,.6,0s.4,0,.5,0c.2,0,.3.1.4.2.1.1.2.2.3.4,0,.2.1.3.1.5,0,.4-.1.6-.3.9-.2.2-.5.4-1,.4s-.8-.1-1-.4c-.2-.2-.3-.5-.3-.9ZM1241,488.2v3.1h4.8v1.7h-4.8v6.9c0,.5,0,.9.2,1.2.1.3.3.6.5.8.2.2.5.3.8.4.3,0,.6.1.9.1s.5,0,.7,0c.2,0,.5,0,.7-.1s.5,0,.7-.1c.2,0,.4,0,.5-.1l.3,1.5c-.2.1-.4.2-.7.3-.2,0-.5.1-.8.2-.3,0-.6.1-1,.1-.3,0-.7,0-1,0-.6,0-1.1,0-1.6-.2-.5-.2-.9-.4-1.3-.8-.4-.3-.6-.8-.8-1.3-.2-.6-.3-1.2-.3-2v-6.9h-3.3v-1.7h3.3v-3.1h2.2ZM1254.9,493.2c.2-.3.4-.5.6-.7.2-.2.4-.4.7-.6.4-.3.8-.5,1.2-.6.5-.1.9-.2,1.4-.2.7,0,1.3,0,1.8.3.6.2,1,.5,1.4.9.4.4.7.9.9,1.5.2.6.3,1.4.3,2.2v8h-2.2v-8c0-.5,0-.9-.2-1.3-.1-.4-.3-.7-.5-.9-.2-.3-.6-.5-.9-.6-.4-.1-.8-.2-1.3-.2-.4,0-.8,0-1.1.2-.4.1-.7.3-1,.5-.2.2-.5.3-.7.6-.2.2-.4.4-.5.7v9.2h-2.2v-18h2.2v7.2ZM1270.5,491.3v1.2c.3-.4.7-.8,1.1-1,.4-.2.9-.4,1.5-.4.3,0,.6,0,.9.1.3,0,.5.2.7.3.2.1.3.2.4.4s.2.3.3.5c.1-.2.2-.3.4-.5.1-.2.3-.3.5-.4.2-.1.5-.2.7-.3s.6-.1.9-.1c.4,0,.8,0,1.2.2.3.1.7.3.9.6.3.3.5.6.6,1.1.1.4.2,1,.2,1.6v9.5h-2.1v-9.5c0-.3,0-.5,0-.7,0-.2-.2-.4-.3-.5-.1-.1-.3-.2-.5-.3-.2,0-.4,0-.6,0s-.5,0-.7.1c-.2,0-.3.2-.5.3-.1.1-.2.3-.3.4,0,.2-.1.3-.1.5h0v9.7h-2.1v-9.5c0-.3,0-.5,0-.7,0-.2-.2-.4-.3-.5-.1-.1-.3-.2-.5-.3-.2,0-.4,0-.6,0s-.5,0-.7,0c-.2,0-.4.1-.5.2-.1,0-.2.2-.3.3,0,.1-.1.2-.2.4v10.1h-2.1v-12.7h1.9Z"/>
      <g class="cls-1">
        <path class="cls-3" d="M517,536v2h2v-2h-2ZM415,536h-2v2h2v-2ZM517,513h-2v23h4v-23h-2ZM517,536v-2h-102v4h102v-2ZM415,536h2v-23h-4v23h2Z"/>
      </g>
      <g class="cls-6">
        <path class="cls-11" d="M519,536v2h-2v-2h2ZM783,536h2v2h-2v-2ZM519,513h2v23h-4v-23h2ZM519,536v-2h264v4h-264v-2ZM783,536h-2v-23h4v23h-2Z"/>
      </g>
      <g class="cls-5">
        <path class="cls-8" d="M887,536v2h2v-2h-2ZM785,536h-2v2h2v-2ZM887,513h-2v23h4v-23h-2ZM887,536v-2h-102v4h102v-2ZM785,536h2v-23h-4v23h2Z"/>
      </g>
    </g>
  </g>
</svg>